<svg width="48" height="48" viewBox="0 0 48 48" fill="none" xmlns="http://www.w3.org/2000/svg">
<circle cx="24" cy="24" r="24" fill="#5B5DFF" fill-opacity="0.2"/>
<path d="M29.635 28.2466C30.4166 27.7333 31.4433 28.2933 31.4433 29.2266V30.7316C31.4433 32.2133 30.2883 33.7999 28.9 34.2666L25.1783 35.5033C24.525 35.7249 23.4633 35.7249 22.8216 35.5033L19.1 34.2666C17.7 33.7999 16.5566 32.2133 16.5566 30.7316V29.2149C16.5566 28.2933 17.5833 27.7333 18.3533 28.2349L20.7566 29.7983C21.6783 30.4166 22.845 30.7199 24.0116 30.7199C25.1783 30.7199 26.345 30.4166 27.2666 29.7983L29.635 28.2466Z" fill="#5B5DFF" fill-opacity="0.7"/>
<path d="M33.3098 17.5366L26.3214 12.9516C25.0614 12.1232 22.9848 12.1232 21.7248 12.9516L14.7014 17.5366C12.4498 18.9949 12.4498 22.2966 14.7014 23.7666L16.5681 24.9799L21.7248 28.3399C22.9848 29.1682 25.0614 29.1682 26.3214 28.3399L31.4431 24.9799L33.0414 23.9299V27.4999C33.0414 27.9782 33.4381 28.3749 33.9164 28.3749C34.3948 28.3749 34.7914 27.9782 34.7914 27.4999V21.7599C35.2581 20.2549 34.7798 18.5049 33.3098 17.5366Z" fill="#5B5DFF" fill-opacity="0.7"/>
</svg>
