<svg width="48" height="48" viewBox="0 0 48 48" fill="none" xmlns="http://www.w3.org/2000/svg">
<circle cx="24" cy="24" r="24" fill="#5B5DFF" fill-opacity="0.2"/>
<path d="M22.5417 15.4134L17.3733 12.8584C14.585 11.4934 12.2983 12.8817 12.2983 15.9384V33.2517C12.2983 34.5817 13.4067 35.6667 14.76 35.6667H23.4167C24.0583 35.6667 24.5833 35.1417 24.5833 34.5001V18.6451C24.5833 17.4201 23.6617 15.9617 22.5417 15.4134ZM20.465 26.0417H16.4167C15.9383 26.0417 15.5417 25.6451 15.5417 25.1667C15.5417 24.6884 15.9383 24.2917 16.4167 24.2917H20.465C20.9433 24.2917 21.34 24.6884 21.34 25.1667C21.34 25.6451 20.955 26.0417 20.465 26.0417ZM20.465 21.3751H16.4167C15.9383 21.3751 15.5417 20.9784 15.5417 20.5001C15.5417 20.0217 15.9383 19.6251 16.4167 19.6251H20.465C20.9433 19.6251 21.34 20.0217 21.34 20.5001C21.34 20.9784 20.955 21.3751 20.465 21.3751Z" fill="#5B5DFF" fill-opacity="0.7"/>
<path d="M35.6668 31.0466V32.75C35.6668 34.36 34.3602 35.6666 32.7502 35.6666H27.4652C26.8352 35.6666 26.3335 35.165 26.3335 34.535V32.015C27.5818 32.1666 28.9002 31.805 29.8452 31.0466C30.6385 31.6883 31.6535 32.0733 32.7618 32.0733C33.8468 32.0733 34.8618 31.6883 35.6668 31.0466Z" fill="#5B5DFF" fill-opacity="0.7"/>
<path d="M35.6668 27.5583V27.5699C35.5735 29.0983 34.3252 30.3233 32.7618 30.3233C31.1402 30.3233 29.8452 29.0049 29.8452 27.4066C29.8452 29.1916 28.2002 30.6266 26.3335 30.2649V23.9999C26.3335 23.2533 27.0218 22.6933 27.7568 22.8566L29.8452 23.3233L30.4052 23.4516L32.7852 23.9883C33.3568 24.1049 33.8818 24.3033 34.3368 24.5949C34.3368 24.6066 34.3485 24.6066 34.3485 24.6066C34.4652 24.6883 34.5818 24.7816 34.6868 24.8866C35.2235 25.4233 35.5735 26.2049 35.6552 27.3483C35.6552 27.4183 35.6668 27.4883 35.6668 27.5583Z" fill="#5B5DFF" fill-opacity="0.7"/>
</svg>
