<svg width="36" height="36" viewBox="0 0 36 36" fill="none" xmlns="http://www.w3.org/2000/svg">
<rect x="0.5" y="0.5" width="35" height="35" rx="17.5" fill="#3879DB"/>
<path d="M18 0C8.05883 0 0 8.05883 0 18C0 27.9412 8.05883 36 18 36C27.9412 36 36 27.9412 36 18C36 8.05883 27.9412 0 18 0ZM26.1095 10L17.9933 16.4163L9.61317 10H26.1095ZM26.9445 26H8.77783V12.7098L17.1518 19.0615C17.3763 19.2332 17.7085 19.319 17.9763 19.319C18.2505 19.319 18.4885 19.229 18.7155 19.0497L26.9445 12.5037V26Z" fill="white"/>
<rect x="0.5" y="0.5" width="35" height="35" rx="17.5" stroke="url(#paint0_linear)"/>
<defs>
<linearGradient id="paint0_linear" x1="0" y1="0" x2="36" y2="36" gradientUnits="userSpaceOnUse">
<stop stop-color="#2C33CF"/>
<stop offset="1" stop-color="#4AEDFB"/>
</linearGradient>
</defs>
</svg>
