<svg width="36" height="36" viewBox="0 0 36 36" fill="none" xmlns="http://www.w3.org/2000/svg">
<rect x="0.5" y="0.5" width="35" height="35" rx="17.5" fill="#3879DB"/>
<path d="M21.4453 18C21.4453 19.9028 19.9028 21.4453 18 21.4453C16.0972 21.4453 14.5547 19.9028 14.5547 18C14.5547 16.0972 16.0972 14.5547 18 14.5547C19.9028 14.5547 21.4453 16.0972 21.4453 18Z" fill="white"/>
<path d="M26.057 11.9041C25.8914 11.4553 25.6272 11.0491 25.2838 10.7156C24.9504 10.3723 24.5445 10.1081 24.0954 9.94247C23.7312 9.80103 23.1841 9.63266 22.1764 9.58679C21.0862 9.53708 20.7594 9.52637 17.9996 9.52637C15.2396 9.52637 14.9128 9.5368 13.8229 9.58652C12.8152 9.63266 12.2678 9.80103 11.9039 9.94247C11.4548 10.1081 11.0486 10.3723 10.7154 10.7156C10.3721 11.0491 10.1079 11.455 9.94199 11.9041C9.80054 12.2683 9.63217 12.8157 9.5863 13.8234C9.53659 14.9132 9.52588 15.2401 9.52588 18.0001C9.52588 20.7599 9.53659 21.0867 9.5863 22.1769C9.63217 23.1846 9.80054 23.7317 9.94199 24.0959C10.1079 24.545 10.3718 24.9509 10.7151 25.2843C11.0486 25.6277 11.4545 25.8919 11.9036 26.0575C12.2678 26.1992 12.8152 26.3676 13.8229 26.4135C14.9128 26.4632 15.2393 26.4736 17.9994 26.4736C20.7597 26.4736 21.0865 26.4632 22.1761 26.4135C23.1838 26.3676 23.7312 26.1992 24.0954 26.0575C24.9968 25.7098 25.7093 24.9973 26.057 24.0959C26.1985 23.7317 26.3668 23.1846 26.413 22.1769C26.4627 21.0867 26.4731 20.7599 26.4731 18.0001C26.4731 15.2401 26.4627 14.9132 26.413 13.8234C26.3671 12.8157 26.1987 12.2683 26.057 11.9041V11.9041ZM17.9996 23.3073C15.0682 23.3073 12.6919 20.9313 12.6919 17.9998C12.6919 15.0684 15.0682 12.6924 17.9996 12.6924C20.9308 12.6924 23.3071 15.0684 23.3071 17.9998C23.3071 20.9313 20.9308 23.3073 17.9996 23.3073ZM23.517 13.7229C22.832 13.7229 22.2766 13.1675 22.2766 12.4825C22.2766 11.7975 22.832 11.2422 23.517 11.2422C24.202 11.2422 24.7573 11.7975 24.7573 12.4825C24.7571 13.1675 24.202 13.7229 23.517 13.7229Z" fill="white"/>
<path d="M18 0C8.06039 0 0 8.06039 0 18C0 27.9396 8.06039 36 18 36C27.9396 36 36 27.9396 36 18C36 8.06039 27.9396 0 18 0ZM28.2736 22.2613C28.2236 23.3616 28.0486 24.1128 27.7932 24.7703C27.2563 26.1587 26.1587 27.2563 24.7703 27.7932C24.1131 28.0486 23.3616 28.2233 22.2616 28.2736C21.1594 28.3239 20.8073 28.3359 18.0003 28.3359C15.193 28.3359 14.8412 28.3239 13.7387 28.2736C12.6387 28.2233 11.8872 28.0486 11.2299 27.7932C10.54 27.5337 9.91544 27.1269 9.39908 26.6009C8.87338 26.0848 8.46661 25.46 8.20706 24.7703C7.95163 24.1131 7.77667 23.3616 7.72668 22.2616C7.67587 21.1591 7.66406 20.807 7.66406 18C7.66406 15.193 7.67587 14.8409 7.72641 13.7387C7.7764 12.6384 7.95108 11.8872 8.20651 11.2297C8.46606 10.54 8.87311 9.91516 9.39908 9.39908C9.91516 8.87311 10.54 8.46634 11.2297 8.20679C11.8872 7.95136 12.6384 7.77667 13.7387 7.72641C14.8409 7.67615 15.193 7.66406 18 7.66406C20.807 7.66406 21.1591 7.67615 22.2613 7.72668C23.3616 7.77667 24.1128 7.95135 24.7703 8.20651C25.46 8.46606 26.0848 8.87311 26.6012 9.39908C27.1269 9.91544 27.5339 10.54 27.7932 11.2297C28.0489 11.8872 28.2236 12.6384 28.2739 13.7387C28.3241 14.8409 28.3359 15.193 28.3359 18C28.3359 20.807 28.3241 21.1591 28.2736 22.2613V22.2613Z" fill="white"/>
<rect x="0.5" y="0.5" width="35" height="35" rx="17.5" stroke="url(#paint0_linear)"/>
<defs>
<linearGradient id="paint0_linear" x1="0" y1="0" x2="36" y2="36" gradientUnits="userSpaceOnUse">
<stop stop-color="#2C33CF"/>
<stop offset="1" stop-color="#4AEDFB"/>
</linearGradient>
</defs>
</svg>
