<svg width="48" height="48" viewBox="0 0 48 48" fill="none" xmlns="http://www.w3.org/2000/svg">
<circle cx="24" cy="24" r="24" fill="#5B5DFF" fill-opacity="0.2"/>
<path d="M41.5 24C41.5 14.335 33.665 6.5 24 6.5C14.335 6.5 6.5 14.335 6.5 24C6.5 33.665 14.335 41.5 24 41.5C33.665 41.5 41.5 33.665 41.5 24Z" fill="#5B5DFF" fill-opacity="0.7"/>
<path d="M27.4453 24C27.4453 25.9028 25.9028 27.4453 24 27.4453C22.0972 27.4453 20.5547 25.9028 20.5547 24C20.5547 22.0972 22.0972 20.5547 24 20.5547C25.9028 20.5547 27.4453 22.0972 27.4453 24Z" fill="white"/>
<path d="M32.057 17.9041C31.8914 17.4553 31.6272 17.0491 31.2838 16.7156C30.9504 16.3723 30.5445 16.1081 30.0954 15.9425C29.7312 15.801 29.1841 15.6327 28.1764 15.5868C27.0862 15.5371 26.7594 15.5264 23.9996 15.5264C21.2396 15.5264 20.9128 15.5368 19.8229 15.5865C18.8152 15.6327 18.2678 15.801 17.9039 15.9425C17.4548 16.1081 17.0486 16.3723 16.7154 16.7156C16.3721 17.0491 16.1079 17.455 15.942 17.9041C15.8005 18.2683 15.6322 18.8157 15.5863 19.8234C15.5366 20.9132 15.5259 21.2401 15.5259 24.0001C15.5259 26.7599 15.5366 27.0867 15.5863 28.1769C15.6322 29.1846 15.8005 29.7317 15.942 30.0959C16.1079 30.545 16.3718 30.9509 16.7151 31.2843C17.0486 31.6277 17.4545 31.8919 17.9036 32.0575C18.2678 32.1992 18.8152 32.3676 19.8229 32.4135C20.9128 32.4632 21.2393 32.4736 23.9994 32.4736C26.7597 32.4736 27.0865 32.4632 28.1761 32.4135C29.1838 32.3676 29.7312 32.1992 30.0954 32.0575C30.9968 31.7098 31.7093 30.9973 32.057 30.0959C32.1985 29.7317 32.3668 29.1846 32.413 28.1769C32.4627 27.0867 32.4731 26.7599 32.4731 24.0001C32.4731 21.2401 32.4627 20.9132 32.413 19.8234C32.3671 18.8157 32.1987 18.2683 32.057 17.9041ZM23.9996 29.3073C21.0682 29.3073 18.6919 26.9313 18.6919 23.9998C18.6919 21.0684 21.0682 18.6924 23.9996 18.6924C26.9308 18.6924 29.3071 21.0684 29.3071 23.9998C29.3071 26.9313 26.9308 29.3073 23.9996 29.3073ZM29.517 19.7229C28.832 19.7229 28.2766 19.1675 28.2766 18.4825C28.2766 17.7975 28.832 17.2422 29.517 17.2422C30.202 17.2422 30.7573 17.7975 30.7573 18.4825C30.7571 19.1675 30.202 19.7229 29.517 19.7229Z" fill="white"/>
<path d="M24 6C14.0604 6 6 14.0604 6 24C6 33.9396 14.0604 42 24 42C33.9396 42 42 33.9396 42 24C42 14.0604 33.9396 6 24 6ZM34.2736 28.2613C34.2236 29.3616 34.0486 30.1128 33.7932 30.7703C33.2563 32.1587 32.1587 33.2563 30.7703 33.7932C30.1131 34.0486 29.3616 34.2233 28.2616 34.2736C27.1594 34.3239 26.8073 34.3359 24.0003 34.3359C21.193 34.3359 20.8412 34.3239 19.7387 34.2736C18.6387 34.2233 17.8872 34.0486 17.2299 33.7932C16.54 33.5337 15.9154 33.1269 15.3991 32.6009C14.8734 32.0848 14.4666 31.46 14.2071 30.7703C13.9516 30.1131 13.7767 29.3616 13.7267 28.2616C13.6759 27.1591 13.6641 26.807 13.6641 24C13.6641 21.193 13.6759 20.8409 13.7264 19.7387C13.7764 18.6384 13.9511 17.8872 14.2065 17.2297C14.4661 16.54 14.8731 15.9152 15.3991 15.3991C15.9152 14.8731 16.54 14.4663 17.2297 14.2068C17.8872 13.9514 18.6384 13.7767 19.7387 13.7264C20.8409 13.6761 21.193 13.6641 24 13.6641C26.807 13.6641 27.1591 13.6761 28.2613 13.7267C29.3616 13.7767 30.1128 13.9513 30.7703 14.2065C31.46 14.4661 32.0848 14.8731 32.6012 15.3991C33.1269 15.9154 33.5339 16.54 33.7932 17.2297C34.0489 17.8872 34.2236 18.6384 34.2739 19.7387C34.3241 20.8409 34.3359 21.193 34.3359 24C34.3359 26.807 34.3241 27.1591 34.2736 28.2613Z" fill="white"/>
<path d="M41.5 24C41.5 14.335 33.665 6.5 24 6.5C14.335 6.5 6.5 14.335 6.5 24C6.5 33.665 14.335 41.5 24 41.5C33.665 41.5 41.5 33.665 41.5 24Z" stroke="url(#paint0_linear)"/>
<defs>
<linearGradient id="paint0_linear" x1="6" y1="6" x2="42" y2="42" gradientUnits="userSpaceOnUse">
<stop stop-color="#5B5DFF"/>
<stop offset="1" stop-color="#A47CFF"/>
</linearGradient>
</defs>
</svg>
