<svg width="36" height="36" viewBox="0 0 36 36" fill="none" xmlns="http://www.w3.org/2000/svg">
<circle cx="18" cy="18" r="17.5" fill="white" stroke="url(#paint0_linear)"/>
<g clip-path="url(#clip0)">
<path d="M12.173 7.65527C13.3523 7.65527 14.3454 8.64833 14.3454 9.8276C14.3454 11.0689 13.2902 12.031 12.173 11.9999C11.0248 12.031 10.0007 11.0689 10.0007 9.8276C9.96967 8.61729 10.9628 7.65527 12.173 7.65527Z" fill="#3879DB"/>
<path d="M13.3831 25.3442H10.9004C10.5591 25.3442 10.2798 25.0648 10.2798 24.7235V13.8619C10.2798 13.5205 10.528 13.2412 10.8694 13.2412H13.3831C13.7244 13.2412 14.0037 13.5205 14.0037 13.8619V24.7545C14.0038 25.0648 13.7245 25.3442 13.3831 25.3442Z" fill="#3879DB"/>
<path d="M27.9685 17.0271C27.9685 14.7306 26.2616 12.9307 23.9652 12.9307H23.3135C22.0722 12.9307 20.8619 13.5203 20.2102 14.4823C19.9929 14.6996 19.8998 14.7927 19.8998 14.7927V13.5514C19.8998 13.4272 19.7136 13.241 19.5895 13.241H16.4861C16.362 13.241 16.1758 13.3651 16.1758 13.5203V25.0957C16.1758 25.2199 16.362 25.344 16.4861 25.344H19.8998C20.0239 25.344 20.2101 25.2199 20.2101 25.0957V18.3925C20.2101 17.2443 21.079 16.2822 22.2273 16.2512C22.8169 16.2512 23.3445 16.4684 23.7479 16.8719C24.1203 17.2443 24.2755 17.7718 24.2755 18.3615V25.0336C24.2755 25.1577 24.4617 25.344 24.5858 25.344H27.6891C27.8133 25.344 27.9995 25.1577 27.9995 25.0336V17.0271H27.9685Z" fill="#3879DB"/>
</g>
<defs>
<linearGradient id="paint0_linear" x1="0" y1="0" x2="36" y2="36" gradientUnits="userSpaceOnUse">
<stop stop-color="#2C33CF"/>
<stop offset="1" stop-color="#4AEDFB"/>
</linearGradient>
<clipPath id="clip0">
<rect width="18" height="18" fill="white" transform="translate(10 7.5)"/>
</clipPath>
</defs>
</svg>
