<svg width="48" height="48" viewBox="0 0 48 48" fill="none" xmlns="http://www.w3.org/2000/svg">
<circle cx="24" cy="24" r="24" fill="#5B5DFF" fill-opacity="0.2"/>
<path d="M24 41.5C33.665 41.5 41.5 33.665 41.5 24C41.5 14.335 33.665 6.5 24 6.5C14.335 6.5 6.5 14.335 6.5 24C6.5 33.665 14.335 41.5 24 41.5Z" fill="white" stroke="url(#paint0_linear)"/>
<path d="M17.173 15C18.3523 15 19.3454 15.9931 19.3454 17.1723C19.3454 18.4136 18.2902 19.3757 17.173 19.3446C16.0248 19.3757 15.0007 18.4136 15.0007 17.1723C14.9697 15.962 15.9628 15 17.173 15Z" fill="#5B5DFF" fill-opacity="0.7"/>
<path d="M18.3831 32.6889H15.9004C15.5591 32.6889 15.2798 32.4095 15.2798 32.0682V21.2066C15.2798 20.8652 15.528 20.5859 15.8694 20.5859H18.3831C18.7244 20.5859 19.0037 20.8652 19.0037 21.2066V32.0992C19.0038 32.4095 18.7245 32.6889 18.3831 32.6889Z" fill="#5B5DFF" fill-opacity="0.7"/>
<path d="M32.9685 24.3718C32.9685 22.0753 31.2616 20.2754 28.9652 20.2754H28.3135C27.0722 20.2754 25.8619 20.865 25.2102 21.827C24.9929 22.0443 24.8998 22.1374 24.8998 22.1374V20.8961C24.8998 20.7719 24.7136 20.5857 24.5895 20.5857H21.4861C21.362 20.5857 21.1758 20.7098 21.1758 20.865V32.4404C21.1758 32.5646 21.362 32.6887 21.4861 32.6887H24.8998C25.0239 32.6887 25.2101 32.5646 25.2101 32.4404V25.7372C25.2101 24.589 26.079 23.6269 27.2273 23.5959C27.8169 23.5959 28.3445 23.8131 28.7479 24.2166C29.1203 24.589 29.2755 25.1165 29.2755 25.7062V32.3783C29.2755 32.5024 29.4617 32.6887 29.5858 32.6887H32.6891C32.8133 32.6887 32.9995 32.5024 32.9995 32.3783V24.3718H32.9685Z" fill="#5B5DFF" fill-opacity="0.7"/>
<defs>
<linearGradient id="paint0_linear" x1="6" y1="6" x2="42" y2="42" gradientUnits="userSpaceOnUse">
<stop stop-color="#5B5DFF"/>
<stop offset="1" stop-color="#A47CFF"/>
</linearGradient>
</defs>
</svg>
