<svg width="48" height="48" viewBox="0 0 48 48" fill="none" xmlns="http://www.w3.org/2000/svg">
<circle cx="24" cy="24" r="24" fill="#5B5DFF" fill-opacity="0.2"/>
<path d="M20.5002 12.3333C17.4435 12.3333 14.9585 14.8183 14.9585 17.8749C14.9585 20.8733 17.3035 23.2999 20.3602 23.4049C20.4535 23.3933 20.5468 23.3933 20.6168 23.4049C20.6402 23.4049 20.6518 23.4049 20.6752 23.4049C20.6868 23.4049 20.6868 23.4049 20.6985 23.4049C23.6852 23.2999 26.0302 20.8733 26.0418 17.8749C26.0418 14.8183 23.5568 12.3333 20.5002 12.3333Z" fill="#5B5DFF" fill-opacity="0.7"/>
<path d="M26.4266 26.5084C23.1716 24.3384 17.8633 24.3384 14.585 26.5084C13.1033 27.5 12.2866 28.8417 12.2866 30.2767C12.2866 31.7117 13.1033 33.0417 14.5733 34.0217C16.2066 35.1184 18.3533 35.6667 20.5 35.6667C22.6466 35.6667 24.7933 35.1184 26.4266 34.0217C27.8966 33.03 28.7133 31.7 28.7133 30.2534C28.7016 28.8184 27.8966 27.4884 26.4266 26.5084Z" fill="#5B5DFF" fill-opacity="0.7"/>
<path d="M33.3214 18.5634C33.5081 20.8267 31.8981 22.81 29.6698 23.0784C29.6581 23.0784 29.6581 23.0784 29.6464 23.0784H29.6114C29.5414 23.0784 29.4714 23.0784 29.4131 23.1017C28.2814 23.16 27.2431 22.7984 26.4614 22.1334C27.6631 21.06 28.3514 19.45 28.2114 17.7C28.1298 16.755 27.8031 15.8917 27.3131 15.1567C27.7564 14.935 28.2698 14.795 28.7948 14.7484C31.0814 14.55 33.1231 16.2534 33.3214 18.5634Z" fill="#5B5DFF" fill-opacity="0.7"/>
<path d="M35.6551 29.3549C35.5618 30.4866 34.8384 31.4666 33.6251 32.1316C32.4584 32.7732 30.9884 33.0766 29.5301 33.0416C30.3701 32.2832 30.8601 31.3382 30.9534 30.3349C31.0701 28.8882 30.3818 27.4999 29.0051 26.3916C28.2234 25.7732 27.3134 25.2832 26.3218 24.9216C28.9001 24.1749 32.1434 24.6766 34.1384 26.2866C35.2118 27.1499 35.7601 28.2349 35.6551 29.3549Z" fill="#5B5DFF" fill-opacity="0.7"/>
</svg>
