<svg width="36" height="36" viewBox="0 0 36 36" fill="none" xmlns="http://www.w3.org/2000/svg">
<path d="M18 36C27.9411 36 36 27.9411 36 18C36 8.05887 27.9411 0 18 0C8.05887 0 0 8.05887 0 18C0 27.9411 8.05887 36 18 36Z" fill="white"/>
<path d="M27 21.7215C25.0583 21.7215 23.2065 21.2985 21.4988 20.4638C21.231 20.3355 20.9205 20.3152 20.637 20.412C20.3535 20.511 20.1218 20.718 19.9913 20.9857L19.1812 22.662C16.7512 21.267 14.7352 19.2487 13.338 16.8187L15.0165 16.0087C15.2865 15.8782 15.4912 15.6465 15.5902 15.363C15.687 15.0795 15.669 14.769 15.5385 14.5013C14.7015 12.7958 14.2785 10.944 14.2785 9C14.2785 8.379 13.7745 7.875 13.1535 7.875H9C8.379 7.875 7.875 8.379 7.875 9C7.875 19.5457 16.4543 28.125 27 28.125C27.621 28.125 28.125 27.621 28.125 27V22.8465C28.125 22.2255 27.621 21.7215 27 21.7215Z" fill="#3879DB"/>
<rect x="0.5" y="0.5" width="35" height="35" rx="17.5" stroke="url(#paint0_linear)"/>
<defs>
<linearGradient id="paint0_linear" x1="0" y1="0" x2="36" y2="36" gradientUnits="userSpaceOnUse">
<stop stop-color="#2C33CF"/>
<stop offset="1" stop-color="#4AEDFB"/>
</linearGradient>
</defs>
</svg>
