<svg width="48" height="48" viewBox="0 0 48 48" fill="none" xmlns="http://www.w3.org/2000/svg">
<circle cx="24" cy="24" r="24" fill="#5B5DFF" fill-opacity="0.2"/>
<path d="M24 42C33.9411 42 42 33.9411 42 24C42 14.0589 33.9411 6 24 6C14.0589 6 6 14.0589 6 24C6 33.9411 14.0589 42 24 42Z" fill="white"/>
<path d="M33 27.7215C31.0583 27.7215 29.2065 27.2985 27.4988 26.4638C27.231 26.3355 26.9205 26.3152 26.637 26.412C26.3535 26.511 26.1218 26.718 25.9913 26.9857L25.1812 28.662C22.7512 27.267 20.7352 25.2487 19.338 22.8187L21.0165 22.0087C21.2865 21.8782 21.4912 21.6465 21.5902 21.363C21.687 21.0795 21.669 20.769 21.5385 20.5013C20.7015 18.7958 20.2785 16.944 20.2785 15C20.2785 14.379 19.7745 13.875 19.1535 13.875H15C14.379 13.875 13.875 14.379 13.875 15C13.875 25.5457 22.4543 34.125 33 34.125C33.621 34.125 34.125 33.621 34.125 33V28.8465C34.125 28.2255 33.621 27.7215 33 27.7215Z" fill="#5B5DFF" fill-opacity="0.7"/>
<path d="M41.5 24C41.5 14.335 33.665 6.5 24 6.5C14.335 6.5 6.5 14.335 6.5 24C6.5 33.665 14.335 41.5 24 41.5C33.665 41.5 41.5 33.665 41.5 24Z" stroke="url(#paint0_linear)"/>
<defs>
<linearGradient id="paint0_linear" x1="6" y1="6" x2="42" y2="42" gradientUnits="userSpaceOnUse">
<stop stop-color="#5B5DFF"/>
<stop offset="1" stop-color="#A47CFF"/>
</linearGradient>
</defs>
</svg>
