<svg xmlns="http://www.w3.org/2000/svg" xmlns:xlink="http://www.w3.org/1999/xlink" width="193.001" height="228" viewBox="0 0 193.001 228">
  <defs>
    <linearGradient id="linear-gradient" x1="0.156" y1="0.94" x2="0.857" y2="0.127" gradientUnits="objectBoundingBox">
      <stop offset="0" stop-color="#333"/>
      <stop offset="1" stop-color="#8e8e8e"/>
    </linearGradient>
  </defs>
  <g id="bed" transform="translate(-908.999 -2590)">
    <circle id="Ellipse_28" data-name="Ellipse 28" cx="56.5" cy="56.5" r="56.5" transform="translate(957 2684)" opacity="0.75" fill="url(#linear-gradient)"/>
    <path id="Subtraction_5" data-name="Subtraction 5" d="M-520-779a60.618,60.618,0,0,1-23.744-4.794,61,61,0,0,1-10.362-5.624,61.435,61.435,0,0,1-9.028-7.449,61.434,61.434,0,0,1-7.449-9.028,61,61,0,0,1-5.624-10.362A60.617,60.617,0,0,1-581-840a60.617,60.617,0,0,1,4.794-23.744,61.006,61.006,0,0,1,5.624-10.362,61.433,61.433,0,0,1,7.449-9.028,61.435,61.435,0,0,1,9.028-7.449,61,61,0,0,1,10.362-5.624A60.619,60.619,0,0,1-520-901a60.618,60.618,0,0,1,23.744,4.794,61,61,0,0,1,10.362,5.624,61.435,61.435,0,0,1,9.028,7.449,61.435,61.435,0,0,1,7.449,9.028,61.008,61.008,0,0,1,5.624,10.362A60.618,60.618,0,0,1-459-840a60.618,60.618,0,0,1-4.794,23.744,61.005,61.005,0,0,1-5.624,10.362,61.435,61.435,0,0,1-7.449,9.028,61.431,61.431,0,0,1-9.028,7.449,61,61,0,0,1-10.362,5.624A60.618,60.618,0,0,1-520-779Zm0-119.56A58.627,58.627,0,0,0-578.56-840,58.627,58.627,0,0,0-520-781.44,58.626,58.626,0,0,0-461.44-840,58.626,58.626,0,0,0-520-898.56Z" transform="translate(1490 3491)" fill="#4d4fa7"/>
    <circle id="Ellipse_8" data-name="Ellipse 8" cx="89" cy="89" r="89" transform="translate(924 2601)" fill="url(#linear-gradient)"/>
    <g id="desktop" transform="translate(959.901 2638.169)">
      <path id="Path_557" data-name="Path 557" d="M280.88,118.026A2.02,2.02,0,1,0,278.859,116,2.024,2.024,0,0,0,280.88,118.026Z" transform="translate(-221.617 -90.945)" fill="#fff"/>
      <path id="Path_558" data-name="Path 558" d="M183.686,143.733a18.321,18.321,0,0,0,14.338-29.724,2.021,2.021,0,0,0-3.163,2.518,14.125,14.125,0,0,1,3.1,8.886,14.277,14.277,0,1,1-15.056-14.256,2.021,2.021,0,1,0-.216-4.037,18.32,18.32,0,0,0,1,36.613Z" transform="translate(-131.064 -85.465)" fill="#fff"/>
      <path id="Path_559" data-name="Path 559" d="M95.215,14.078H83.07c-.62-.91-1.006-1.136-3.558-3.734a7.007,7.007,0,0,0-9.9,0l-3.09,3.09a29.746,29.746,0,0,0-4.988-2.069V7a7.006,7.006,0,0,0-7-7H50.7a7.007,7.007,0,0,0-7,7v4.367a29.752,29.752,0,0,0-4.988,2.069l-3.09-3.09a7.007,7.007,0,0,0-9.9,0c-2.509,2.555-2.937,2.822-3.557,3.734H10.028A8.939,8.939,0,0,0,1.1,23.007V70.392a8.939,8.939,0,0,0,8.929,8.929H45.051L42.4,88.835H36.326A6.629,6.629,0,0,0,29.7,95.457v3.989h-7.42a2.021,2.021,0,0,0,0,4.043H82.958a2.021,2.021,0,1,0,0-4.043h-7.42v-3.99a6.629,6.629,0,0,0-6.622-6.622H62.842l-2.65-9.515H95.215a8.939,8.939,0,0,0,8.929-8.929V23.007a8.939,8.939,0,0,0-8.929-8.929Zm0,4.043a4.892,4.892,0,0,1,4.886,4.886V61.529H84.252a7.014,7.014,0,0,0-2.027-4.589l-3.09-3.09A29.73,29.73,0,0,0,81.2,48.863c4.417-.011,4.465.027,5.081-.036a7.008,7.008,0,0,0,6.284-6.962V38.03a7.006,7.006,0,0,0-7-7H81.2a29.748,29.748,0,0,0-2.069-4.988l3.09-3.09a6.989,6.989,0,0,0,2.052-4.833ZM25.877,15.915,28.589,13.2a2.96,2.96,0,0,1,4.181,0l4.171,4.171a2.023,2.023,0,0,0,2.463.308,25.74,25.74,0,0,1,6.821-2.829,2.021,2.021,0,0,0,1.523-1.959V7A2.96,2.96,0,0,1,50.7,4.043h3.835A2.96,2.96,0,0,1,57.5,7v5.895a2.021,2.021,0,0,0,1.523,1.959,25.733,25.733,0,0,1,6.821,2.829,2.022,2.022,0,0,0,2.463-.308L72.473,13.2a2.96,2.96,0,0,1,4.181,0c2.727,2.817,3.285,2.957,3.528,4.267a2.953,2.953,0,0,1-.816,2.626L75.2,24.266a2.021,2.021,0,0,0-.308,2.463,25.74,25.74,0,0,1,2.585,5.928q.13.444.244.893a2.021,2.021,0,0,0,1.959,1.523H85.57a2.96,2.96,0,0,1,2.956,2.956v3.835a2.96,2.96,0,0,1-2.956,2.956H79.675a2.021,2.021,0,0,0-1.959,1.523,25.733,25.733,0,0,1-2.829,6.821q-.044.075-.082.151a2.021,2.021,0,0,0,.389,2.312c3.707,3.948,4.817,4.234,5.015,5.9H25.033a2.929,2.929,0,0,1,.844-1.73l4.171-4.171a2.022,2.022,0,0,0,.308-2.463,25.717,25.717,0,0,1-2.829-6.821,2.021,2.021,0,0,0-1.959-1.523H19.673a2.96,2.96,0,0,1-2.956-2.956V38.03a2.96,2.96,0,0,1,2.956-2.956h5.9a2.021,2.021,0,0,0,1.959-1.523,25.719,25.719,0,0,1,2.829-6.821,2.021,2.021,0,0,0-.308-2.463c-4.089-4.138-4.224-4.135-4.561-4.654a2.959,2.959,0,0,1,.39-3.7ZM10.028,18.121H20.967a7,7,0,0,0,2.052,4.833l3.09,3.09a29.761,29.761,0,0,0-2.069,4.988H19.673a7.007,7.007,0,0,0-7,7v3.835a7.007,7.007,0,0,0,7,7h4.367a29.744,29.744,0,0,0,2.069,4.988l-3.09,3.09a7.013,7.013,0,0,0-2.027,4.589H5.142V23.007a4.892,4.892,0,0,1,4.886-4.886ZM71.5,95.457v3.99H33.747v-3.99a2.582,2.582,0,0,1,2.579-2.579H68.917A2.582,2.582,0,0,1,71.5,95.457Zm-12.85-6.622H46.6l2.65-9.515H56ZM100.1,70.391a4.892,4.892,0,0,1-4.886,4.886H10.028a4.892,4.892,0,0,1-4.886-4.886V65.572H100.1v4.819Z" fill="#fff"/>
    </g>
  </g>
</svg>
