<svg xmlns="http://www.w3.org/2000/svg" xmlns:xlink="http://www.w3.org/1999/xlink" width="193.001" height="228" viewBox="0 0 193.001 228">
  <defs>
    <linearGradient id="linear-gradient" x1="-0.07" y1="1.175" x2="1.15" y2="-0.372" gradientUnits="objectBoundingBox">
      <stop offset="0" stop-color="#ed1c24"/>
      <stop offset="1" stop-color="#fcee21"/>
    </linearGradient>
  </defs>
  <g id="fed" transform="translate(-581.999 -2590)">
    <circle id="Ellipse_27" data-name="Ellipse 27" cx="56.5" cy="56.5" r="56.5" transform="translate(630 2684)" opacity="0.75" fill="url(#linear-gradient)"/>
    <path id="Subtraction_4" data-name="Subtraction 4" d="M-520-779a60.618,60.618,0,0,1-23.744-4.794,61,61,0,0,1-10.362-5.624,61.435,61.435,0,0,1-9.028-7.449,61.434,61.434,0,0,1-7.449-9.028,61,61,0,0,1-5.624-10.362A60.617,60.617,0,0,1-581-840a60.617,60.617,0,0,1,4.794-23.744,61.006,61.006,0,0,1,5.624-10.362,61.433,61.433,0,0,1,7.449-9.028,61.435,61.435,0,0,1,9.028-7.449,61,61,0,0,1,10.362-5.624A60.619,60.619,0,0,1-520-901a60.618,60.618,0,0,1,23.744,4.794,61,61,0,0,1,10.362,5.624,61.435,61.435,0,0,1,9.028,7.449,61.435,61.435,0,0,1,7.449,9.028,61.008,61.008,0,0,1,5.624,10.362A60.618,60.618,0,0,1-459-840a60.618,60.618,0,0,1-4.794,23.744,61.005,61.005,0,0,1-5.624,10.362,61.435,61.435,0,0,1-7.449,9.028,61.431,61.431,0,0,1-9.028,7.449,61,61,0,0,1-10.362,5.624A60.618,60.618,0,0,1-520-779Zm0-119.56A58.627,58.627,0,0,0-578.56-840,58.627,58.627,0,0,0-520-781.44,58.626,58.626,0,0,0-461.44-840,58.626,58.626,0,0,0-520-898.56Z" transform="translate(1163 3491)" fill="#4d4fa7"/>
    <circle id="Ellipse_5" data-name="Ellipse 5" cx="89" cy="89" r="89" transform="translate(597 2601)" fill="url(#linear-gradient)"/>
    <g id="programming" transform="translate(628 2605.045)">
      <path id="Path_560" data-name="Path 560" d="M109.831,119.149V64.362a7.691,7.691,0,0,0-7.683-7.683H93.492V45.708a7.762,7.762,0,0,0-7.753-7.753H30.679a7.762,7.762,0,0,0-7.753,7.753V56.68H14.27a7.691,7.691,0,0,0-7.683,7.683v54.787A7.115,7.115,0,0,0,0,126.235v8.6a2.274,2.274,0,0,0,2.274,2.274H114.145a2.274,2.274,0,0,0,2.274-2.274v-8.6A7.115,7.115,0,0,0,109.831,119.149ZM93.492,61.228h8.657a3.139,3.139,0,0,1,3.135,3.135v43H93.492V61.228ZM27.474,45.708A3.209,3.209,0,0,1,30.679,42.5h55.06a3.209,3.209,0,0,1,3.205,3.205V49.36H27.474Zm0,8.2H88.945v53.457H27.474ZM11.135,64.363a3.139,3.139,0,0,1,3.135-3.135h8.657v46.137H11.135Zm0,47.549h94.149v7.216H11.135Zm56.857,11.764-.1.573a2.084,2.084,0,0,1-2.053,1.719H50.582a2.084,2.084,0,0,1-2.053-1.72l-.1-.573H67.992Zm43.879,8.889H4.548v-6.33a2.562,2.562,0,0,1,2.56-2.56h36.7l.245,1.372a6.626,6.626,0,0,0,6.53,5.468H65.836a6.626,6.626,0,0,0,6.53-5.468l.245-1.373h36.7a2.562,2.562,0,0,1,2.56,2.56Z" fill="#fff"/>
      <path id="Path_561" data-name="Path 561" d="M191.779,150.322a2.274,2.274,0,1,0,3.443-2.97l-4.035-4.677a.666.666,0,0,1,0-.865l4.035-4.677a2.274,2.274,0,1,0-3.443-2.97l-4.035,4.677a5.24,5.24,0,0,0,0,6.806Z" transform="translate(-144.085 -73.723)" fill="#fff"/>
      <path id="Path_562" data-name="Path 562" d="M285.223,147.35a2.274,2.274,0,0,0,3.443,2.97l4.035-4.677a5.24,5.24,0,0,0,0-6.806l-4.035-4.677a2.274,2.274,0,1,0-3.443,2.971l4.035,4.677a.666.666,0,0,1,0,.865Z" transform="translate(-219.942 -73.721)" fill="#fff"/>
      <path id="Path_563" data-name="Path 563" d="M241.62,147.094a2.274,2.274,0,0,0,2.636-1.842l2.845-16.034a2.274,2.274,0,1,0-4.478-.794l-2.845,16.034A2.274,2.274,0,0,0,241.62,147.094Z" transform="translate(-185.231 -68.448)" fill="#fff"/>
      <path id="Path_564" data-name="Path 564" d="M166.324,238.755h37.268a2.274,2.274,0,1,0,0-4.548H166.324a2.274,2.274,0,0,0,0,4.548Z" transform="translate(-126.748 -151.628)" fill="#fff"/>
      <path id="Path_565" data-name="Path 565" d="M330.224,267.348a2.274,2.274,0,1,0,0,4.548h.006a2.274,2.274,0,0,0-.006-4.548Z" transform="translate(-253.381 -177.234)" fill="#fff"/>
      <path id="Path_566" data-name="Path 566" d="M166.324,271.9H194.5a2.274,2.274,0,1,0,0-4.548H166.324a2.274,2.274,0,0,0,0,4.548Z" transform="translate(-126.748 -177.234)" fill="#fff"/>
      <path id="Path_567" data-name="Path 567" d="M203.591,300.488H166.324a2.274,2.274,0,0,0,0,4.548h37.268a2.274,2.274,0,1,0,0-4.548Z" transform="translate(-126.748 -202.838)" fill="#fff"/>
    </g>
  </g>
</svg>
