<svg xmlns="http://www.w3.org/2000/svg" xmlns:xlink="http://www.w3.org/1999/xlink" width="193" height="225" viewBox="0 0 193 225">
  <defs>
    <linearGradient id="linear-gradient" x1="0.113" y1="0.935" x2="0.869" y2="0.118" gradientUnits="objectBoundingBox">
      <stop offset="0" stop-color="#2e3192"/>
      <stop offset="1" stop-color="#18ffff"/>
    </linearGradient>
  </defs>
  <g id="uiux" transform="translate(-215 -2590)">
    <circle id="Ellipse_26" data-name="Ellipse 26" cx="56.5" cy="56.5" r="56.5" transform="translate(263 2681)" opacity="0.75" fill="url(#linear-gradient)"/>
    <path id="Subtraction_3" data-name="Subtraction 3" d="M-520-779a60.618,60.618,0,0,1-23.744-4.794,61,61,0,0,1-10.362-5.624,61.435,61.435,0,0,1-9.028-7.449,61.434,61.434,0,0,1-7.449-9.028,61,61,0,0,1-5.624-10.362A60.617,60.617,0,0,1-581-840a60.617,60.617,0,0,1,4.794-23.744,61.006,61.006,0,0,1,5.624-10.362,61.433,61.433,0,0,1,7.449-9.028,61.435,61.435,0,0,1,9.028-7.449,61,61,0,0,1,10.362-5.624A60.619,60.619,0,0,1-520-901a60.618,60.618,0,0,1,23.744,4.794,61,61,0,0,1,10.362,5.624,61.435,61.435,0,0,1,9.028,7.449,61.435,61.435,0,0,1,7.449,9.028,61.008,61.008,0,0,1,5.624,10.362A60.618,60.618,0,0,1-459-840a60.618,60.618,0,0,1-4.794,23.744,61.005,61.005,0,0,1-5.624,10.362,61.435,61.435,0,0,1-7.449,9.028,61.431,61.431,0,0,1-9.028,7.449,61,61,0,0,1-10.362,5.624A60.618,60.618,0,0,1-520-779Zm0-119.56A58.627,58.627,0,0,0-578.56-840,58.627,58.627,0,0,0-520-781.44,58.626,58.626,0,0,0-461.44-840,58.626,58.626,0,0,0-520-898.56Z" transform="translate(796 3491)" fill="#4d4fa7"/>
    <circle id="Ellipse_11" data-name="Ellipse 11" cx="89" cy="89" r="89" transform="translate(230 2601)" fill="url(#linear-gradient)"/>
    <g id="idea" transform="translate(207.014 2616.169)">
      <path id="Path_547" data-name="Path 547" d="M150,69H137.1c-.888-21.983-27.97-32.864-43.68-16.594A25.262,25.262,0,0,0,86.283,69h-12.9a8.552,8.552,0,0,0-8.542,8.542v51.755a8.557,8.557,0,0,0,6.41,8.273c2.117.546,1.593.112,32.886.269l-1.965,7.053H97.324a6.515,6.515,0,0,0-6.508,6.508v2.85H84.942a2.451,2.451,0,1,0,0,4.9h53.5a2.451,2.451,0,1,0,0-4.9h-5.874V151.4a6.515,6.515,0,0,0-6.508-6.508h-4.849l-1.965-7.053H150a8.552,8.552,0,0,0,8.542-8.542V77.539A8.552,8.552,0,0,0,150,69ZM111.4,49.522c18.7-.272,27.7,22.433,14.659,35.2a25.865,25.865,0,0,0-7.081,12.145H104.41q-.128-.5-.277-1c-2.478-8.293-7.056-10.561-9.74-14.754l-.04-.062C85.685,67.4,95.591,49.742,111.4,49.522Zm-3.138,56.611a2.724,2.724,0,0,1-2.674-2.306l-.309-2.06h12.83l-.309,2.06a2.725,2.725,0,0,1-2.671,2.306h-6.867ZM73.383,73.9H86.549a25.218,25.218,0,0,0,5.964,12.855c1.839,2.106,6.42,5.729,7.555,13.323.683,4.214.55,6.227,2.514,8.43a7.35,7.35,0,0,0,5.683,2.528h6.857a7.562,7.562,0,0,0,7.525-6.481c.835-3.263.065-9.7,6.841-16.331A25.238,25.238,0,0,0,136.841,73.9H150a3.645,3.645,0,0,1,3.64,3.64v43.272h-83.9V77.539a3.644,3.644,0,0,1,3.64-3.64Zm54.286,77.5v2.85H95.718V151.4a1.608,1.608,0,0,1,1.606-1.606h28.739A1.608,1.608,0,0,1,127.669,151.4Zm-11.543-6.508h-8.865l1.965-7.053h4.935Zm37.518-15.6a3.645,3.645,0,0,1-3.64,3.64H73.383a3.645,3.645,0,0,1-3.64-3.64v-3.581h83.9v3.581Z" transform="translate(0 -33.661)" fill="#fff"/>
      <path id="Path_548" data-name="Path 548" d="M230.581,330.635h8.76a2.451,2.451,0,1,0,0-4.9h-8.76a2.451,2.451,0,1,0,0,4.9Z" transform="translate(-123.268 -245.897)" fill="#fff"/>
      <path id="Path_549" data-name="Path 549" d="M352.95,217.706h7.064a5.437,5.437,0,0,0,5.431-5.431V205.21a5.438,5.438,0,0,0-5.431-5.431H352.95a5.437,5.437,0,0,0-5.431,5.431v7.064A5.437,5.437,0,0,0,352.95,217.706Zm-.529-12.5a.53.53,0,0,1,.529-.529h7.064a.53.53,0,0,1,.529.529v7.064a.53.53,0,0,1-.529.529H352.95a.53.53,0,0,1-.529-.529Z" transform="translate(-213.395 -150.814)" fill="#fff"/>
      <path id="Path_550" data-name="Path 550" d="M322.854,296.767h14.2a5.437,5.437,0,0,0,5.431-5.431V285.4a5.437,5.437,0,0,0-5.431-5.431h-14.2a5.437,5.437,0,0,0-5.431,5.431v5.932A5.437,5.437,0,0,0,322.854,296.767Zm-.529-11.363a.53.53,0,0,1,.529-.529h14.2a.53.53,0,0,1,.529.529v5.932a.53.53,0,0,1-.529.529h-14.2a.53.53,0,0,1-.529-.529Z" transform="translate(-190.675 -211.353)" fill="#fff"/>
      <path id="Path_551" data-name="Path 551" d="M102.828,255.61h6.6a7.632,7.632,0,0,0,7.624-7.624V233.974a7.632,7.632,0,0,0-7.624-7.624h-6.6a7.632,7.632,0,0,0-7.624,7.624v14.013A7.632,7.632,0,0,0,102.828,255.61Zm-2.722-21.637a2.725,2.725,0,0,1,2.722-2.722h6.6a2.725,2.725,0,0,1,2.722,2.722v14.013a2.725,2.725,0,0,1-2.722,2.722h-6.6a2.725,2.725,0,0,1-2.722-2.722Z" transform="translate(-22.921 -170.873)" fill="#fff"/>
      <path id="Path_552" data-name="Path 552" d="M210.457,119.421a14.8,14.8,0,0,0,14.786-14.786,2.451,2.451,0,0,0-4.9,0,9.884,9.884,0,1,1-8.923-9.838,2.451,2.451,0,1,0,.472-4.879,14.787,14.787,0,1,0-1.433,29.5Z" transform="translate(-98.764 -67.826)" fill="#fff"/>
      <path id="Path_553" data-name="Path 553" d="M248.451,9.646A2.451,2.451,0,0,0,250.9,7.2V2.451a2.451,2.451,0,0,0-4.9,0V7.2A2.451,2.451,0,0,0,248.451,9.646Z" transform="translate(-136.758 0)" fill="#fff"/>
      <path id="Path_554" data-name="Path 554" d="M146.189,44.966l2.967,2.53a2.451,2.451,0,1,0,3.181-3.73l-2.967-2.53a2.451,2.451,0,0,0-3.181,3.73Z" transform="translate(-60.76 -30.687)" fill="#fff"/>
      <path id="Path_555" data-name="Path 555" d="M338.608,47.5l2.967-2.53a2.451,2.451,0,0,0-3.181-3.73l-2.967,2.53a2.451,2.451,0,0,0,3.181,3.73Z" transform="translate(-203.617 -30.687)" fill="#fff"/>
      <path id="Path_556" data-name="Path 556" d="M286.271,111.895h.006a2.454,2.454,0,1,0-.006,0Z" transform="translate(-165.308 -80.769)" fill="#fff"/>
    </g>
  </g>
</svg>
