<svg xmlns="http://www.w3.org/2000/svg" width="821" height="583" viewBox="0 0 821 583">
  <g id="Group_93" data-name="Group 93" transform="translate(-545 -887)">
    <rect id="Rectangle_52" data-name="Rectangle 52" width="750" height="533" transform="translate(616 887)" fill="#d6d6d6" opacity="0.31"/>
    <g id="Group_92" data-name="Group 92" transform="translate(264 162.414)" opacity="0.35">
      <ellipse id="Ellipse_12" data-name="Ellipse 12" cx="4.5" cy="5" rx="4.5" ry="5" transform="translate(281 1169.586)" fill="#7b7b7b"/>
      <ellipse id="Ellipse_12-2" data-name="Ellipse 12" cx="4.5" cy="5" rx="4.5" ry="5" transform="translate(307 1169.586)" fill="#7b7b7b"/>
      <circle id="Ellipse_12-3" data-name="Ellipse 12" cx="5" cy="5" r="5" transform="translate(332 1169.586)" fill="#7b7b7b"/>
      <ellipse id="Ellipse_12-4" data-name="Ellipse 12" cx="4.5" cy="5" rx="4.5" ry="5" transform="translate(358 1169.586)" fill="#7b7b7b"/>
      <ellipse id="Ellipse_12-5" data-name="Ellipse 12" cx="4.5" cy="5" rx="4.5" ry="5" transform="translate(384 1169.586)" fill="#7b7b7b"/>
      <circle id="Ellipse_12-6" data-name="Ellipse 12" cx="5" cy="5" r="5" transform="translate(409 1169.586)" fill="#7b7b7b"/>
      <circle id="Ellipse_12-7" data-name="Ellipse 12" cx="4.5" cy="4.5" r="4.5" transform="translate(281 1195.586)" fill="#7b7b7b"/>
      <circle id="Ellipse_12-8" data-name="Ellipse 12" cx="4.5" cy="4.5" r="4.5" transform="translate(307 1195.586)" fill="#7b7b7b"/>
      <ellipse id="Ellipse_12-9" data-name="Ellipse 12" cx="5" cy="4.5" rx="5" ry="4.5" transform="translate(332 1195.586)" fill="#7b7b7b"/>
      <circle id="Ellipse_12-10" data-name="Ellipse 12" cx="4.5" cy="4.5" r="4.5" transform="translate(358 1195.586)" fill="#7b7b7b"/>
      <circle id="Ellipse_12-11" data-name="Ellipse 12" cx="4.5" cy="4.5" r="4.5" transform="translate(384 1195.586)" fill="#7b7b7b"/>
      <ellipse id="Ellipse_12-12" data-name="Ellipse 12" cx="5" cy="4.5" rx="5" ry="4.5" transform="translate(409 1195.586)" fill="#7b7b7b"/>
      <circle id="Ellipse_12-13" data-name="Ellipse 12" cx="4.5" cy="4.5" r="4.5" transform="translate(281 1221.586)" fill="#7b7b7b"/>
      <circle id="Ellipse_12-14" data-name="Ellipse 12" cx="4.5" cy="4.5" r="4.5" transform="translate(307 1221.586)" fill="#7b7b7b"/>
      <ellipse id="Ellipse_12-15" data-name="Ellipse 12" cx="5" cy="4.5" rx="5" ry="4.5" transform="translate(332 1221.586)" fill="#7b7b7b"/>
      <circle id="Ellipse_12-16" data-name="Ellipse 12" cx="4.5" cy="4.5" r="4.5" transform="translate(358 1221.586)" fill="#7b7b7b"/>
      <circle id="Ellipse_12-17" data-name="Ellipse 12" cx="4.5" cy="4.5" r="4.5" transform="translate(384 1221.586)" fill="#7b7b7b"/>
      <ellipse id="Ellipse_12-18" data-name="Ellipse 12" cx="5" cy="4.5" rx="5" ry="4.5" transform="translate(409 1221.586)" fill="#7b7b7b"/>
      <ellipse id="Ellipse_12-19" data-name="Ellipse 12" cx="4.5" cy="5" rx="4.5" ry="5" transform="translate(281 1246.586)" fill="#7b7b7b"/>
      <ellipse id="Ellipse_12-20" data-name="Ellipse 12" cx="4.5" cy="5" rx="4.5" ry="5" transform="translate(307 1246.586)" fill="#7b7b7b"/>
      <circle id="Ellipse_12-21" data-name="Ellipse 12" cx="5" cy="5" r="5" transform="translate(332 1246.586)" fill="#7b7b7b"/>
      <ellipse id="Ellipse_12-22" data-name="Ellipse 12" cx="4.5" cy="5" rx="4.5" ry="5" transform="translate(358 1246.586)" fill="#7b7b7b"/>
      <ellipse id="Ellipse_12-23" data-name="Ellipse 12" cx="4.5" cy="5" rx="4.5" ry="5" transform="translate(384 1246.586)" fill="#7b7b7b"/>
      <circle id="Ellipse_12-24" data-name="Ellipse 12" cx="5" cy="5" r="5" transform="translate(409 1246.586)" fill="#7b7b7b"/>
      <circle id="Ellipse_12-25" data-name="Ellipse 12" cx="4.5" cy="4.5" r="4.5" transform="translate(281 1272.586)" fill="#7b7b7b"/>
      <circle id="Ellipse_12-26" data-name="Ellipse 12" cx="4.5" cy="4.5" r="4.5" transform="translate(307 1272.586)" fill="#7b7b7b"/>
      <ellipse id="Ellipse_12-27" data-name="Ellipse 12" cx="5" cy="4.5" rx="5" ry="4.5" transform="translate(332 1272.586)" fill="#7b7b7b"/>
      <circle id="Ellipse_12-28" data-name="Ellipse 12" cx="4.5" cy="4.5" r="4.5" transform="translate(358 1272.586)" fill="#7b7b7b"/>
      <circle id="Ellipse_12-29" data-name="Ellipse 12" cx="4.5" cy="4.5" r="4.5" transform="translate(384 1272.586)" fill="#7b7b7b"/>
      <ellipse id="Ellipse_12-30" data-name="Ellipse 12" cx="5" cy="4.5" rx="5" ry="4.5" transform="translate(409 1272.586)" fill="#7b7b7b"/>
      <circle id="Ellipse_12-31" data-name="Ellipse 12" cx="4.5" cy="4.5" r="4.5" transform="translate(281 1298.586)" fill="#7b7b7b"/>
      <circle id="Ellipse_12-32" data-name="Ellipse 12" cx="4.5" cy="4.5" r="4.5" transform="translate(307 1298.586)" fill="#7b7b7b"/>
      <ellipse id="Ellipse_12-33" data-name="Ellipse 12" cx="5" cy="4.5" rx="5" ry="4.5" transform="translate(332 1298.586)" fill="#7b7b7b"/>
      <circle id="Ellipse_12-34" data-name="Ellipse 12" cx="4.5" cy="4.5" r="4.5" transform="translate(358 1298.586)" fill="#7b7b7b"/>
      <circle id="Ellipse_12-35" data-name="Ellipse 12" cx="4.5" cy="4.5" r="4.5" transform="translate(384 1298.586)" fill="#7b7b7b"/>
      <ellipse id="Ellipse_12-36" data-name="Ellipse 12" cx="5" cy="4.5" rx="5" ry="4.5" transform="translate(409 1298.586)" fill="#7b7b7b"/>
    </g>
  </g>
</svg>
