<svg xmlns="http://www.w3.org/2000/svg" xmlns:xlink="http://www.w3.org/1999/xlink" width="240" height="181.06" viewBox="0 0 240 181.06">
  <defs>
    <linearGradient id="linear-gradient" x1="0.334" y1="0.708" x2="0.61" y2="0.197" gradientUnits="objectBoundingBox">
      <stop offset="0" stop-color="#fb9c4d"/>
      <stop offset="0.98" stop-color="#e16c3f"/>
    </linearGradient>
    <linearGradient id="linear-gradient-2" x1="0.359" y1="0.674" x2="0.858" y2="0" xlink:href="#linear-gradient"/>
    <linearGradient id="linear-gradient-3" x1="0.358" y1="0.663" x2="0.859" y2="0.006" xlink:href="#linear-gradient"/>
    <linearGradient id="linear-gradient-4" x1="0.324" y1="0.692" x2="0.523" y2="0.456" xlink:href="#linear-gradient"/>
  </defs>
  <g id="why1" transform="translate(-8.75 -11.947)">
    <path id="Path_922" data-name="Path 922" d="M125.2,213.041,13.419,146.984c-3.561-2-6.614-5.283-3.143-7.435L122.459,74.878c1.681-1.044,4.237-1.727,5.95-.734l117.328,68.125c3.561,2.068,4.2,7.841.644,9.909L139.93,212.97a14.858,14.858,0,0,1-14.734.071Z" transform="translate(0 -21.954)" fill="#fb9c4d"/>
    <path id="Path_923" data-name="Path 923" d="M156.56,193.179l28.7-10.869,23.767,10.875L182.26,209.453C176.21,205.516,162.423,197.366,156.56,193.179Z" transform="translate(-52.634 -60.604)" fill="url(#linear-gradient)"/>
    <path id="Path_924" data-name="Path 924" d="M107.72,215.2l27.388-13.53,20.7,12.57-26.769,14.438C123,224.767,113.583,219.387,107.72,215.2Z" transform="translate(-35.242 -67.491)" fill="url(#linear-gradient-2)"/>
    <path id="Path_925" data-name="Path 925" d="M208.476,175.47l-19.231,7.216s-.805.522-.29,1.772c.3.715,1.888,1.746,1.888,1.746l16.6,9.664a9.575,9.575,0,0,0,2.861.773,9.859,9.859,0,0,0,3.55-1l15.462-8.955Z" transform="translate(-64.104 -58.171)" fill="#34323d"/>
    <path id="Path_926" data-name="Path 926" d="M208.23,174.08l-18.374,7.512s-1.289.7-.947,1.656a3.969,3.969,0,0,0,1.643,1.669l16.648,9.567a9.573,9.573,0,0,0,2.861.773,9.859,9.859,0,0,0,3.55-1l14.638-8.324Z" transform="translate(-64.128 -57.676)" fill="#9fd2ff"/>
    <path id="Path_927" data-name="Path 927" d="M208.23,174.08l-18.374,7.512s-1.289.7-.947,1.656a3.969,3.969,0,0,0,1.643,1.669l16.648,9.567a9.573,9.573,0,0,0,2.861.773,9.859,9.859,0,0,0,3.55-1l14.638-8.324Z" transform="translate(-64.128 -57.676)" fill="#06577a" opacity="0.45"/>
    <path id="Path_928" data-name="Path 928" d="M237.053,141.691a1.772,1.772,0,0,0,2.055-.5s.361-.071.361-1.649V66.286a4.51,4.51,0,0,0-1.6-3.312,52.978,52.978,0,0,0-5.605-3.427l-81.4-46.986-.915-.464a1.437,1.437,0,0,0-1.817.464,2.925,2.925,0,0,0-.4,1.334c-.032.767,0,8.169,0,8.169V87.972a4.555,4.555,0,0,0,1.483,3.364Z" transform="translate(-49.498)" fill="#9fd2ff"/>
    <path id="Path_929" data-name="Path 929" d="M238.342,131.325v-63.2c0-2.1-.29-3.273-1.933-4.149L150.56,14.236a1.134,1.134,0,0,0-1.81.915l.213,64.993Z" transform="translate(-49.865 -0.735)" fill="#fff"/>
    <path id="Path_930" data-name="Path 930" d="M303.26,190.5l18.194-8.15,9.986,7.409-15.288,8.865C312.479,196.247,306.8,193.006,303.26,190.5Z" transform="translate(-104.871 -60.618)" fill="url(#linear-gradient-3)"/>
    <path id="Path_931" data-name="Path 931" d="M269.921,93.89v21.821l-15.791-9.155.11-21.776Z" transform="translate(-87.363 -25.909)" fill="#fb9c4d"/>
    <path id="Path_932" data-name="Path 932" d="M239.321,76.98V98.8L223.53,89.64l.11-21.77Z" transform="translate(-76.469 -19.894)" fill="#06577a"/>
    <path id="Path_933" data-name="Path 933" d="M208.161,59.18V81L192.37,71.84l.1-21.77Z" transform="translate(-65.375 -13.562)" fill="#f78b72"/>
    <path id="Path_934" data-name="Path 934" d="M175.641,40.68V62.5L159.85,53.346l.1-21.776Z" transform="translate(-53.797 -6.981)" fill="#22b573"/>
    <line id="Line_16" data-name="Line 16" x1="35.505" y1="20.172" transform="translate(147.055 75.667)" fill="#fb9c4d"/>
    <path id="Path_935" data-name="Path 935" d="M259.01,129.662,223.5,109.5a.966.966,0,0,0-.973,1.669l35.505,20.166a.966.966,0,0,0,.973-1.669Z" transform="translate(-75.96 -34.661)" fill="#fbb03b"/>
    <line id="Line_17" data-name="Line 17" x1="35.505" y1="20.166" transform="translate(146.366 81.678)" fill="#fb9c4d"/>
    <path id="Path_936" data-name="Path 936" d="M257.93,138.992l-35.505-20.166a.966.966,0,0,0-.973,1.669l35.505,20.166a.966.966,0,0,0,.973-1.669Z" transform="translate(-75.575 -37.98)" fill="#fbb03b"/>
    <line id="Line_18" data-name="Line 18" x1="35.505" y1="20.166" transform="translate(145.948 87.418)" fill="#fb9c4d"/>
    <path id="Path_937" data-name="Path 937" d="M257.29,147.9l-35.505-20.165a.966.966,0,0,0-.973,1.669l35.505,20.165a.966.966,0,0,0,.973-1.669Z" transform="translate(-75.347 -41.15)" fill="#fbb03b"/>
    <ellipse id="Ellipse_85" data-name="Ellipse 85" cx="6.204" cy="8.479" rx="6.204" ry="8.479" transform="translate(124.113 69.076) rotate(-14.92)" fill="#06577a"/>
    <ellipse id="Ellipse_86" data-name="Ellipse 86" cx="6.204" cy="8.479" rx="6.204" ry="8.479" transform="translate(102.703 58.874) rotate(-14.92)" fill="#fb9c4d"/>
    <path id="Path_938" data-name="Path 938" d="M151.718,203.519a33.365,33.365,0,0,1,4.838-1.8c.941-.071,2.506.251,1.14,1.971a47.2,47.2,0,0,1-4.639,2.764c-.541.084-1.855-.329-1.888-.187s-.155,1.179-.155,1.179-3.428,1.289-3.576-.986c0-.3.5-4.555.5-4.555" transform="translate(-49.377 -67.504)" fill="#e55600"/>
    <path id="Path_939" data-name="Path 939" d="M147.132,171.567c.676-4.407,1.933-8.678,2.435-13.137.322-2.8.554-5.624.9-8.427s1.392-5.515,2.062-8.292a.3.3,0,0,0-.142-.341,1,1,0,0,1,.09-.29c.348-.329.7-.644,1.044-.941l4.793,3.221s0,2.931-.18,7.19c-.554,2.48-.979,4.69-1.611,7.042a.644.644,0,0,1,.148.561,199.08,199.08,0,0,0-3.4,22.42.644.644,0,0,1-.425.561l-.135,1.16c-4.168,1.611-5.083-1.192-5.083-1.192s-.187-2.39-.425-5.7C147.119,174.112,147.1,172.843,147.132,171.567Z" transform="translate(-49.262 -45.603)" fill="#34323d"/>
    <path id="Path_940" data-name="Path 940" d="M192.658,114.2l.11.039a.535.535,0,0,1,.245-.831c.232-.077.47-.142.709-.219a.471.471,0,0,1,.064-.077,1.448,1.448,0,0,1,.251-.18.457.457,0,0,1,.387-.206h.18c.2-.045.406-.084.644-.129l.728-.161a.522.522,0,0,1,.1-.18,32.542,32.542,0,0,0,2.738-3.82c.3-.451,1.134-.18.928.387a11.074,11.074,0,0,1-.741,1.855,33.75,33.75,0,0,0,2.641-2.526c.419-.5,1.127.219.715.715-.251.3-1.243,1.069-1.495,1.366.483-.445,1.707-1.359,2.2-1.8s1.2.283.715.715q-1.173,1.044-2.313,2.12c.689-.425,1.366-.87,2.023-1.347.528-.387,1.031.5.509.876-.754.548-1.533,1.057-2.332,1.533a10.247,10.247,0,0,0,1.482-.425c.606-.238.87.741.271.979-.5.193-1.012.354-1.52.515l-.767.245a3.073,3.073,0,0,0-.85.374,11.217,11.217,0,0,1-3.221,1.347l-.213.129a.445.445,0,0,1-.438,0,7.4,7.4,0,0,1-4.02-.322C191.788,114.949,192.014,113.97,192.658,114.2Z" transform="translate(-65.256 -34.161)" fill="#fcbf81"/>
    <path id="Path_941" data-name="Path 941" d="M169.24,101.156a5.612,5.612,0,0,1,.606-.58.084.084,0,0,0,0,.045.1.1,0,0,0,.161.09l.4-.3a.49.49,0,0,0-.045.155.419.419,0,0,0,.329.464.412.412,0,0,0,.528-.367l.168-.1a.419.419,0,0,0,0,.129.367.367,0,0,0,.515.341l.174-.077a.3.3,0,0,0,.225.09,9.422,9.422,0,0,0,1.134-.052.161.161,0,0,1,.039-.264,10.514,10.514,0,0,1,1.5-.406h.058l.039-.032a1.437,1.437,0,0,0,.277-.992,1.127,1.127,0,0,0,.535-.818.174.174,0,0,1-.077-.071.779.779,0,0,1-.09-.238,1.089,1.089,0,0,1-.058-.374.148.148,0,0,1,.1-.135c-.084-.264-.193-.528-.3-.767a4.2,4.2,0,0,0,1.327-2.036.361.361,0,0,0-.573-.387,7.616,7.616,0,0,0-.689.644.3.3,0,0,0-.135.071,44.6,44.6,0,0,1-3.634,3.221,19.459,19.459,0,0,0-2.577,2.017C169.13,100.453,166.611,103.159,169.24,101.156Zm1.347-.644h0a.1.1,0,0,0,.135.058h0a.374.374,0,0,0,.271.161.235.235,0,0,1-.432-.187Z" transform="translate(-56.713 -29.329)" fill="#fcbf81"/>
    <path id="Path_942" data-name="Path 942" d="M170.355,102.919a3.91,3.91,0,0,0,1.289-.709.754.754,0,0,1,1.076.071,4.4,4.4,0,0,0,.238-.548.792.792,0,0,1,1.495.515,3.865,3.865,0,0,1-1.334,1.933,6.443,6.443,0,0,1-2.133.857.812.812,0,0,1-.928-.979l-.045-.077a.8.8,0,0,1,.341-1.063Z" transform="translate(-57.383 -31.768)" fill="#fcbf81"/>
    <path id="Path_943" data-name="Path 943" d="M173.935,103.264a3.221,3.221,0,0,0,1.888-1.289.09.09,0,0,0,.11.071l.734-.187a1.476,1.476,0,0,0,.432-.155c.316-.2.225-.586.225-.908a.1.1,0,0,0,0-.058l.129-.11a1.353,1.353,0,0,0,.483-.644c.052-.271-.129-.528-.167-.792a.644.644,0,0,0-.122-.754c-.264-.258-.528-.077-.78.1q-.812.554-1.585,1.166c-.1.077,0,.225.129.148q.419-.329.85-.644a3.725,3.725,0,0,1,.9-.644c.8-.148.341.722.155.921a2.6,2.6,0,0,1-.361.322l-.818.709h0a.09.09,0,0,0-.032.071,2.777,2.777,0,0,1-2.178,2.5C173.761,103.129,173.8,103.322,173.935,103.264Zm2.429-2.577a.09.09,0,0,0-.1,0v-.064a7.512,7.512,0,0,0,1.353-1.231.891.891,0,0,0,.077.232.6.6,0,0,1-.187.644c-.238.264-.831.85-1.16.47ZM175.9,101.8a2.764,2.764,0,0,0,.341-.954c.264.271.606.161.9,0a2.182,2.182,0,0,1,0,.412c0,.206-.161.29-.348.341a7.372,7.372,0,0,1-.921.251Z" transform="translate(-58.766 -30.722)" fill="#34323d"/>
    <path id="Path_944" data-name="Path 944" d="M156.23,108.241c.309-.483,10.559-6.687,11.184-7.461a5.354,5.354,0,0,1,.4,6.024s-5.747,6.733-8.736,7.332" transform="translate(-52.507 -31.601)" fill="#5f66fc"/>
    <path id="Path_945" data-name="Path 945" d="M167,214.47l2.319.831a1.289,1.289,0,0,0,.934.85.515.515,0,0,0,.322.18,6.069,6.069,0,0,0,2.751-.445c1.108-.348,5.438-2,4.239,1.1-.792.554-1.675,1.037-2.48,1.527-.457.277-.908.554-1.379.812a2.738,2.738,0,0,1-.812.374c-.644.1-2.133-.374-2.171-.213s-.18,1.353-.18,1.353-3.943,1.508-4.117-1.134C166.41,219.36,167,214.47,167,214.47Z" transform="translate(-56.138 -72.044)" fill="#e55600"/>
    <path id="Path_946" data-name="Path 946" d="M160.224,162.575c-.483-7.789-.747-15.63-2.4-23.284-.071-1.991-1.359-.722-1.289-1.508.7-6.41,10.038,1.218,10.038,1.218.38.309.425,2.274.5,2.719q.644,3.692,1.082,7.409c1.546,12.512.973,24.965.341,37.516-1.984,2.029-3.279,2.635-6.475,1.327q-.966-12.322-1.772-24.656Z" transform="translate(-52.616 -43.852)" fill="#34323d"/>
    <path id="Path_947" data-name="Path 947" d="M153.806,123.032a81.257,81.257,0,0,1-.251-11.6c.071-1.011.348-3.5,1.359-4.085,2.223-1.289,5.315-.135,7.19,1.243,2.5,1.843,3.943,18.98,3.949,23.194-3.44,1.359-7.937,1.875-11.455.419-.309-.129-.38-4.336-.425-4.858C154.083,125.905,153.954,124.462,153.806,123.032Z" transform="translate(-51.519 -33.739)" fill="#8b93fc"/>
    <path id="Path_948" data-name="Path 948" d="M164.727,123.093a5.94,5.94,0,0,0,4.368,5.219c0,.238.077,1.72.1,1.933-2.809-.644-4.877-4.194-5.154-7.177C163.98,122.642,164.657,122.648,164.727,123.093Z" transform="translate(-55.284 -39.418)" fill="#34323d"/>
    <path id="Path_949" data-name="Path 949" d="M161.822,95.934c.219.1,1.289,4.9.039,7.461s-5.322-1.089-6.082-3.357S157.705,93.995,161.822,95.934Z" transform="translate(-52.3 -29.686)" fill="#fcbf81"/>
    <path id="Path_950" data-name="Path 950" d="M160.918,95.066a2.165,2.165,0,0,1-1.649,1.694c-1.372.232-2.493.348-2.538.954s2.332.354,2.081,1.714a10.308,10.308,0,0,1-.876,2.635c-.264.644-3.724-2.126-4.336-5.843a3.172,3.172,0,0,1,2.9-4.033,3.279,3.279,0,0,1,2.242-.928c1.624-.045,1.933.644,1.933.644a1.933,1.933,0,0,1,2.229.676,2.449,2.449,0,0,1-1.321,3.962Z" transform="translate(-51.543 -28.213)" fill="#e55600"/>
    <path id="Path_951" data-name="Path 951" d="M163.821,112.345s8.794,2.977,11.642,2.422a63.781,63.781,0,0,0,8.021-2.648,5.556,5.556,0,0,1,2.2,6.617c-3.344,1.237-13.278,4.722-16.8,3.756-4.265-1.166-9.02-2.9-9.02-2.9S155.252,116.553,163.821,112.345Z" transform="translate(-53.363 -35.635)" fill="#8b93fc"/>
    <path id="Path_952" data-name="Path 952" d="M273.021,166.3v5.277a1.1,1.1,0,0,1-1.617.96l-4.877-2.654a1.1,1.1,0,0,1-.567-.96v-5.4a1.1,1.1,0,0,1,1.636-.947l4.877,2.8A1.1,1.1,0,0,1,273.021,166.3Z" transform="translate(-91.572 -53.535)" fill="#ef7f6c"/>
    <path id="Path_953" data-name="Path 953" d="M257.721,157.851v5.277a1.1,1.1,0,0,1-1.617.96l-4.877-2.68a1.1,1.1,0,0,1-.567-.96v-5.4a1.1,1.1,0,0,1,1.636-.947l4.877,2.8a1.1,1.1,0,0,1,.548.947Z" transform="translate(-86.125 -50.518)" fill="#06577a"/>
    <path id="Path_954" data-name="Path 954" d="M240.921,148.4v5.277a1.1,1.1,0,0,1-1.617.96l-4.877-2.68a1.1,1.1,0,0,1-.567-.96v-5.4a1.1,1.1,0,0,1,1.636-.947l4.877,2.8A1.1,1.1,0,0,1,240.921,148.4Z" transform="translate(-80.144 -47.157)" fill="#22b573"/>
    <path id="Path_955" data-name="Path 955" d="M344.693,171.45s1.475,12.666-5.231,15.121-10.308-3.93-10.392-15.121" transform="translate(-114.052 -56.741)" fill="#06577a"/>
    <ellipse id="Ellipse_87" data-name="Ellipse 87" cx="7.808" cy="4.516" rx="7.808" ry="4.516" transform="translate(215.018 110.193)" fill="#f2696a"/>
    <path id="Path_956" data-name="Path 956" d="M330.535,147.952s3.067-4.426,1.727-7.486c0,0-1.1-1.965-2.667-2.281,0,0,.155,4.194-1.4,3.659s0-4.394,0-4.394-1.643-2.223-3.44-2.152,0,3.924-1.25,3.286-.077-3.917-1.482-4.31a29.522,29.522,0,0,0-3.9-.644s-1.327,3.827,0,4.375,3.279.734,2.345,1.578-3.6-.129-3.6-.129-.168,2.152.734,3.086,6.217-1.127,5.277.722-4.452.921-4.452.921a14.237,14.237,0,0,0,3.9,3.737C324.433,149.079,330.535,147.952,330.535,147.952Z" transform="translate(-109.706 -43.287)" fill="#8ccc00"/>
    <path id="Path_957" data-name="Path 957" d="M333.135,167.853s2.216-2.184,1.778-4.065a2.874,2.874,0,0,0-1.289-1.578s-.361,2.4-1.192,1.933.47-2.493.47-2.493-.7-1.437-1.72-1.591-.419,2.229-1.063,1.733.374-2.236-.38-2.577a17.052,17.052,0,0,0-2.152-.773s-1.16,2.029-.464,2.487,1.785.767,1.16,1.147-2.029-.457-2.029-.457a2.813,2.813,0,0,0,.09,1.83c.412.625,3.647,0,2.919.973s-2.629.052-2.629.052a8.317,8.317,0,0,0,1.817,2.538C329.533,167.872,333.135,167.853,333.135,167.853Z" transform="translate(-113.008 -52.113)" fill="#8ccc00"/>
    <path id="Path_958" data-name="Path 958" d="M347.187,155.685s5.38.206,7.242-2.577c0,0,1.063-1.984.49-3.473,0,0-3.453,2.384-3.866.78s3.7-2.358,3.7-2.358.992-2.577,0-4.052-3.312,2.107-3.44.709,3.266-2.171,2.835-3.569a29.506,29.506,0,0,0-1.572-3.634s-3.943.934-3.692,2.352,1.147,3.163-.071,2.822-1.823-3.1-1.823-3.1-1.933,1.018-2.2,2.281,4.291,4.639,2.229,4.838-3.17-3.26-3.17-3.26a14.44,14.44,0,0,0-1.057,5.3C342.935,151.156,347.187,155.685,347.187,155.685Z" transform="translate(-118.93 -44.667)" fill="#8ccc00"/>
    <path id="Path_959" data-name="Path 959" d="M320.372,135.928l1.72,1.469c-.058-.612-.129-1.218-.225-1.823-.052-.322.438-.457.49-.135q.193,1.218.29,2.442c1.508,1.321,3,2.706,4.4,4.175a18.151,18.151,0,0,0,.09-3.105.255.255,0,0,1,.509,0,18.685,18.685,0,0,1-.148,3.589,35.16,35.16,0,0,1,2.5,3.022,10.076,10.076,0,0,0,1.74-4.059c.058-.322.548-.187.49.135a10.418,10.418,0,0,1-1.881,4.3.258.258,0,0,1-.052.045,19.65,19.65,0,0,1,3.9,10.843.255.255,0,0,1-.509,0,19.1,19.1,0,0,0-3.743-10.469,19.606,19.606,0,0,1-6.3.644c-.322,0-.329-.528,0-.509a19.212,19.212,0,0,0,5.985-.554,36.878,36.878,0,0,0-3.543-4.11h-.045c-1.185.1-2.371.213-3.563.251a4.349,4.349,0,0,1-2.21-.258c-.29-.148-.032-.586.258-.438a5.9,5.9,0,0,0,2.848.142c.754-.045,1.508-.11,2.261-.174-1.81-1.8-3.756-3.466-5.631-5.051C319.76,136.076,320.121,135.735,320.372,135.928Z" transform="translate(-110.799 -43.865)" fill="#06577a"/>
    <path id="Path_960" data-name="Path 960" d="M345.065,147.933a.254.254,0,1,1,.49-.135,9.02,9.02,0,0,0,3.26,4.69q.863-2.4,1.578-4.851a15.185,15.185,0,0,1-2.983-4.207c-.142-.3.3-.554.438-.258a14.818,14.818,0,0,0,2.712,3.866c.528-1.868,1-3.763,1.392-5.67.064-.322.554-.187.49.135q-.812,3.917-2,7.731a11.925,11.925,0,0,0,2.777-.908c.3-.142.554.3.258.438a12.475,12.475,0,0,1-3.221,1.024h0c-.535,1.675-1.14,3.324-1.778,4.961a12.292,12.292,0,0,0,4.42-.973c.3-.129.554.309.258.438a12.969,12.969,0,0,1-4.877,1.05q-1.224,3.054-2.693,6.017c-.148.29-.586.039-.438-.258a79.346,79.346,0,0,0,3.486-8.073h0a9.561,9.561,0,0,1-3.563-5.019Z" transform="translate(-119.739 -45.974)" fill="#06577a"/>
    <path id="Path_961" data-name="Path 961" d="M330.54,161.826l1.4,2.345a4.39,4.39,0,0,0,.445-.734c.142-.3.58-.039.438.258a4.843,4.843,0,0,1-.586.928h0l1.514,2.545a1.037,1.037,0,0,0,.309-.612c.039-.322.548-.322.509,0a1.6,1.6,0,0,1-.56,1.044l1.894,3.183a.254.254,0,1,1-.438.258l-2.5-4.194a3.8,3.8,0,0,1-1.237-.187c-.309-.1-.174-.593.135-.49a3.383,3.383,0,0,0,.786.148l-2.532-4.252a.251.251,0,0,1,.425-.238Z" transform="translate(-114.421 -53.289)" fill="#06577a"/>
    <path id="Path_962" data-name="Path 962" d="M14.55,177.91l27.388-13.53,20.7,12.57L35.869,191.413C29.826,187.477,20.413,182.1,14.55,177.91Z" transform="translate(-2.063 -54.226)" fill="url(#linear-gradient-4)"/>
    <path id="Path_963" data-name="Path 963" d="M74.416,129.94v31.833s-30.6,1.7-30.6,0V129.94" transform="translate(-12.476 -41.974)" fill="#9fd2ff"/>
    <ellipse id="Ellipse_88" data-name="Ellipse 88" cx="15.301" cy="6.99" rx="15.301" ry="6.99" transform="translate(31.338 112.538)" fill="#9fd2ff"/>
    <ellipse id="Ellipse_89" data-name="Ellipse 89" cx="15.301" cy="6.99" rx="15.301" ry="6.99" transform="translate(31.338 80.976)" fill="#3129a3"/>
    <path id="Path_964" data-name="Path 964" d="M81.318,119.39l-.1.058c-.586.206-1.179.393-1.785.541l4.162-34.861a2.1,2.1,0,0,1,2.133.393l-4.271,33.8Z" transform="translate(-25.164 -25.987)" fill="#f78b72"/>
    <path id="Path_965" data-name="Path 965" d="M74.289,121.84,73,89.118a2.085,2.085,0,0,1,2.165.052l1.057,32.4a17.144,17.144,0,0,1-1.933.271Z" transform="translate(-22.856 -27.361)" fill="#f78b72"/>
    <path id="Path_966" data-name="Path 966" d="M60.524,121.954,56.3,87.84,47.78,92.35l3.447,28.657a26.022,26.022,0,0,0,9.3.947Z" transform="translate(-13.884 -26.998)" fill="#fcb749"/>
  </g>
</svg>
