<svg xmlns="http://www.w3.org/2000/svg" xmlns:xlink="http://www.w3.org/1999/xlink" width="240" height="194.791" viewBox="0 0 240 194.791">
  <defs>
    <linearGradient id="linear-gradient" x1="0.769" y1="-0.06" x2="0.441" y2="0.673" gradientUnits="objectBoundingBox">
      <stop offset="0.01" stop-color="#88a80d"/>
      <stop offset="1" stop-color="#fff"/>
    </linearGradient>
    <linearGradient id="linear-gradient-2" x1="0.786" y1="-0.042" x2="0.266" y2="1.025" xlink:href="#linear-gradient"/>
  </defs>
  <g id="why2" transform="translate(-41.769 -20.12)">
    <g id="Layer_2" data-name="Layer 2" transform="translate(41.769 20.12)">
      <path id="Path_864" data-name="Path 864" d="M165.949,229.352l113.065-63.586a5.427,5.427,0,0,0,.2-9.326L169.61,88.319a5.394,5.394,0,0,0-5.557-.083l-119.6,69.6a5.427,5.427,0,0,0,0,9.371L151.1,229.276a14.946,14.946,0,0,0,14.844.076Z" transform="translate(-41.769 -36.496)" fill="#b4ee73"/>
      <path id="Path_865" data-name="Path 865" d="M195.3,171.33c-11.582,7.668-49.741,36.842-61.194,44.662,19.485,10.757,29.976,16.4,32.134,17.948l69.786-39.56Z" transform="translate(-64.523 -56.867)" fill="url(#linear-gradient)"/>
      <path id="Path_866" data-name="Path 866" d="M136.49,152.519s1.453,13.353,9.788,16.419,19.848-8.743,19.848-8.743l-17.668-13" transform="translate(-64.999 -51.001)" fill="#56403d"/>
      <path id="Path_867" data-name="Path 867" d="M157.4,105.939c-1.514-1.045-3.512-.689-5.3,0-7.222,2.982-17.66,8.895-17.539,19.447A118.194,118.194,0,0,0,136,142.3c.341,2.2.636,4.935,1.749,6.813,1.658,2.831,8.97-3.55,10.355-4.625,2.369-1.832,4.671-3.785,6.942-5.776,1.688-1.514,5.458-3.838,6.139-6.185a6.337,6.337,0,0,0,.174-1.628,106.127,106.127,0,0,0-.7-14.867C160.282,112.888,160.093,107.8,157.4,105.939Z" transform="translate(-64.523 -40.816)" fill="#56403d"/>
      <path id="Path_868" data-name="Path 868" d="M185.3,204.26c.4.56-.568,5.912,1.355,7.57s6.873,4.466,5.359,5.632c-4.451,3.437-14.564-5.3-14.564-5.3V202.89" transform="translate(-75.025 -64.537)" fill="#ff666d"/>
      <path id="Path_869" data-name="Path 869" d="M200.038,197.98c.4.56-.568,5.912,1.355,7.57s6.737,4.315,5.359,5.632c-3.694,3.535-15.942-4.126-15.942-4.126l1.378-10.446" transform="translate(-78.301 -63.011)" fill="#ff666d"/>
      <path id="Path_870" data-name="Path 870" d="M155.514,156.087s-.613,6.631,2.506,9.3,14.262,5.851,14.262,5.851S168.5,189.44,169.2,191.052s8.781,2.528,13.02,0c0,0,6.207,1.6,10.318-2.188,0,0,7.948-22.5,5.42-29.825s-16.411-9.409-16.411-9.409Z" transform="translate(-69.67 -51.594)" fill="#ffe0de"/>
      <path id="Path_871" data-name="Path 871" d="M149.38,172.578v38.81l2.4,1.7,3.687-2.422V171.874l-5.034-2.324Z" transform="translate(-68.136 -56.434)" fill="#56403d"/>
      <path id="Path_872" data-name="Path 872" d="M149.38,169.55l.03,4.822,2.49.394Z" transform="translate(-68.133 -56.434)" fill="#56403d"/>
      <path id="Path_873" data-name="Path 873" d="M150.521,166.162l35.048,20.355a2.332,2.332,0,0,0,2.407-.038l50.475-31.733a2.332,2.332,0,0,0-.136-4.02l-34.064-18.372a2.332,2.332,0,0,0-2.271,0l-51.475,29.727a2.331,2.331,0,0,0,.015,4.08Z" transform="translate(-68.24 -47.324)" fill="#56403d"/>
      <path id="Path_874" data-name="Path 874" d="M205.51,122.608l25.533-14.746a1.34,1.34,0,0,1,2.014,1.166V128.52a2.127,2.127,0,0,1-1.082,1.847L206.82,144.59a1.6,1.6,0,0,1-2.43-1.363v-18.7A2.226,2.226,0,0,1,205.51,122.608Z" transform="translate(-81.65 -41.399)" fill="#6de2fc"/>
      <path id="Path_875" data-name="Path 875" d="M261.66,155.659v35.873l2.4,1.688,3.686-2.422V155A53.031,53.031,0,0,0,261.66,155.659Z" transform="translate(-95.648 -52.899)" fill="#56403d"/>
      <path id="Path_876" data-name="Path 876" d="M192.03,192.808v38.81l2.4,1.688,3.687-2.422V192.1l-5.041-2.316Z" transform="translate(-78.586 -61.351)" fill="#56403d"/>
      <path id="Path_877" data-name="Path 877" d="M150.32,161.546l35.9,20.9a1.908,1.908,0,0,0,1.976,0L239.484,150.2a1.908,1.908,0,0,0-.106-3.3L204.5,128.012a1.908,1.908,0,0,0-1.862,0l-52.307,30.211a1.908,1.908,0,0,0-.008,3.323Z" transform="translate(-68.252 -46.281)" fill="#ffc050"/>
      <path id="Path_878" data-name="Path 878" d="M205.51,122.608l25.533-14.746a1.34,1.34,0,0,1,2.014,1.166V128.52a2.127,2.127,0,0,1-1.082,1.847L206.82,144.59a1.6,1.6,0,0,1-2.43-1.363v-18.7A2.226,2.226,0,0,1,205.51,122.608Z" transform="translate(-81.65 -41.399)" fill="#56403d"/>
      <path id="Path_879" data-name="Path 879" d="M197.2,177.11l11.786-7.025-13.853-8.175-12.127,7.025Z" transform="translate(-76.403 -54.578)" fill="#56403d"/>
      <path id="Path_880" data-name="Path 880" d="M204.016,176.4l11.794-7.017-13.86-8.183-12.119,7.025Z" transform="translate(-78.075 -54.405)" fill="#9fd2ff"/>
      <path id="Path_881" data-name="Path 881" d="M221.28,143.14v8.342l5.783-3.1v-8.2" transform="translate(-85.753 -49.297)" fill="#56403d"/>
      <ellipse id="Ellipse_76" data-name="Ellipse 76" cx="9.826" cy="2.339" rx="9.826" ry="2.339" transform="translate(127.238 103.128) rotate(-26.12)" fill="#56403d"/>
      <path id="Path_882" data-name="Path 882" d="M275.6,89.676a2.8,2.8,0,0,0,2.543,1.514,1.627,1.627,0,0,0,.4-.114h.2c1.514.121,1.794-1.862.757-2.528a2.951,2.951,0,0,0-.545-.984,1.226,1.226,0,0,0-.189-.757.409.409,0,0,0-.651-.045l-.522-.416c-.409-.318-.81.378-.4.689a8.669,8.669,0,0,1,.924.757,6.1,6.1,0,0,1-.363.757,2.694,2.694,0,0,0-.348,1.166,1.3,1.3,0,0,0,.144.575,1.514,1.514,0,0,1-.341-.136c-1.514-.81-1.779-2.982-1.514-4.474.1-.507-.674-.719-.757-.212a5.836,5.836,0,0,0,.666,4.209Zm2.816.484a.984.984,0,0,1-.053-1.029l.106-.235a.3.3,0,0,0,.273.242h.045A1.128,1.128,0,0,1,278.418,90.16Z" transform="translate(-98.866 -35.93)" fill="#ff413b"/>
      <path id="Path_883" data-name="Path 883" d="M275.956,59.137c-.4-.326.167-.886.568-.568a2.876,2.876,0,0,1,.3,4.118c-.348.386-.908-.182-.568-.568a2.082,2.082,0,0,0-.3-2.983Z" transform="translate(-99.108 -29.441)" fill="#ff413b"/>
      <path id="Path_884" data-name="Path 884" d="M252.346,71.653l.227.356a2.271,2.271,0,0,0-.136,1.332,1.892,1.892,0,0,0,1.6,1.446,1.256,1.256,0,0,0,.325,0,.4.4,0,0,0,.666-.356,1.347,1.347,0,0,0,.394-.886,2.612,2.612,0,0,0-.712-1.726,14.474,14.474,0,0,1,2.589.3c.507.106.719-.666.212-.757a15.791,15.791,0,0,0-3.391-.348l.091-.121c.31-.409-.386-.81-.689-.4-.136.174-.28.371-.409.568h-.416a.409.409,0,0,0-.348.59Zm1.143.3.083-.151h0a3.5,3.5,0,0,1,.863,1.082,1.143,1.143,0,0,1,.083.757Z" transform="translate(-93.354 -32.321)" fill="#ff413b"/>
      <path id="Path_885" data-name="Path 885" d="M306.581,117.985c.454-.235.863.454.4.689-.984.507-2.536,1.3-2.18,2.665.182.689.8,1.03,1.4.537a3.2,3.2,0,0,0,.795-1.559.4.4,0,0,1,.757.212,3.5,3.5,0,0,1-1.408,2.21,1.514,1.514,0,0,1-2-.462C302.977,120.437,305.082,118.795,306.581,117.985Z" transform="translate(-106.094 -43.891)" fill="#ff413b"/>
      <path id="Path_886" data-name="Path 886" d="M301.785,73.125c.3-.416.992,0,.689.4a2.437,2.437,0,1,0,4.163,2.422c.22-.469.908-.061.689.4a3.232,3.232,0,1,1-5.541-3.225Z" transform="translate(-105.416 -32.959)" fill="#ff413b"/>
      <path id="Path_887" data-name="Path 887" d="M259.579,35.276C246.385,44,245.681,66.169,258,84.79s33.8,27.758,46.176,17.925c14.67-11.642,11.037-37.092-1.128-54.048C292.568,34.065,272.765,26.548,259.579,35.276Z" transform="translate(-92.8 -22.9)" fill="#9fd2ff"/>
      <ellipse id="Ellipse_77" data-name="Ellipse 77" cx="24.821" cy="39.514" rx="24.821" ry="39.514" transform="translate(143.094 28.735) rotate(-33.48)" fill="#9fd2ff"/>
      <ellipse id="Ellipse_78" data-name="Ellipse 78" cx="24.821" cy="39.514" rx="24.821" ry="39.514" transform="translate(143.094 28.735) rotate(-33.48)" opacity="0.42"/>
      <ellipse id="Ellipse_79" data-name="Ellipse 79" cx="19.901" cy="30.476" rx="19.901" ry="30.476" transform="translate(151.547 33.976) rotate(-33.48)" fill="#fff"/>
      <path id="Path_888" data-name="Path 888" d="M269.066,56.611l12.051,23.466a1.136,1.136,0,0,0,1.279.522l11.067-4.39c1.34-.53.757-2.733-.606-2.188L281.8,78.45l1.279.522L271.027,55.506c-.666-1.3-2.627-.151-1.961,1.143Z" transform="translate(-97.47 -28.58)" fill="#42210b"/>
      <path id="Path_889" data-name="Path 889" d="M282.933,53.77a1.473,1.473,0,0,1,0,2.945A1.473,1.473,0,0,1,282.933,53.77Z" transform="translate(-100.505 -28.298)" fill="#606060"/>
      <path id="Path_890" data-name="Path 890" d="M287.894,112a1.473,1.473,0,0,1,0,2.945A1.473,1.473,0,0,1,287.894,112Z" transform="translate(-101.721 -42.449)" fill="#606060"/>
      <path id="Path_891" data-name="Path 891" d="M261.243,79.64a1.473,1.473,0,0,1,0,2.945A1.473,1.473,0,0,1,261.243,79.64Z" transform="translate(-95.191 -34.585)" fill="#606060"/>
      <path id="Path_892" data-name="Path 892" d="M310.893,85.39a1.473,1.473,0,0,1,0,2.945A1.473,1.473,0,0,1,310.893,85.39Z" transform="translate(-107.447 -35.982)" fill="#606060"/>
      <path id="Path_893" data-name="Path 893" d="M285.67,23.5v9.144h8.319V23.5" transform="translate(-101.535 -20.941)" fill="#9fd2ff"/>
      <ellipse id="Ellipse_80" data-name="Ellipse 80" cx="4.156" cy="2.559" rx="4.156" ry="2.559" transform="translate(184.142 9.144)" fill="#9fd2ff"/>
      <path id="Path_894" data-name="Path 894" d="M285.67,23.5v9.144c0,1.416,1.862,2.559,4.156,2.559s4.156-1.143,4.156-2.559V23.5Z" transform="translate(-101.535 -20.941)" opacity="0.42"/>
      <ellipse id="Ellipse_81" data-name="Ellipse 81" cx="4.156" cy="2.559" rx="4.156" ry="2.559" transform="translate(184.142)" fill="#9fd2ff"/>
      <path id="Path_895" data-name="Path 895" d="M306.414,38.38l-3.671,4.073h0a1.65,1.65,0,0,0,.447,2.044,1.589,1.589,0,0,0,2.15.371l3.611-3.967Z" transform="translate(-105.768 -24.558)" fill="#9fd2ff"/>
      <path id="Path_896" data-name="Path 896" d="M306.414,38.38l-3.671,4.073h0a1.65,1.65,0,0,0,.447,2.044,1.589,1.589,0,0,0,2.15.371l3.611-3.967Z" transform="translate(-105.768 -24.558)" opacity="0.42"/>
      <ellipse id="Ellipse_82" data-name="Ellipse 82" cx="1.257" cy="1.779" rx="1.257" ry="1.779" transform="translate(199.76 14.72) rotate(-45)" fill="#9fd2ff"/>
      <path id="Path_897" data-name="Path 897" d="M286.32,79.714s7.388-24.027,7.411-24,8.705,7.2,12.952,16.4Z" transform="translate(-101.821 -28.769)" fill="#36b2bf" opacity="0.37"/>
      <path id="Path_898" data-name="Path 898" d="M172.74,171.1c.6.757.121,2.415,3.225,3.785s10.6,1.726,9.409-1.279-7.116-4.05-7.116-4.05" transform="translate(-73.868 -56.437)" fill="#5ed18d"/>
      <path id="Path_899" data-name="Path 899" d="M173.758,162.82a58.722,58.722,0,0,0,4.587,4.133c1.12.757,5.428,2.112,5.11,3.573s-4.126-1.211-4.375-1.06a2.839,2.839,0,0,1-2.6,1.514c-2.263.235-3.225-.038-3.785-.757s-3.338-4.05-2.384-5.246A10.2,10.2,0,0,1,173.758,162.82Z" transform="translate(-73.223 -54.799)" fill="#fbb5ad"/>
      <path id="Path_900" data-name="Path 900" d="M210.951,112.94s3.528-3.2,4.58-5.216,1.9-.121,1.817.863-1.817,2.945-1.817,2.945.553,1.9.553,2.15.522,3.028-1.082,3.944-4.958,1.052-4.958,1.052l-.553-4.466Z" transform="translate(-82.867 -41.193)" fill="#fbb5ad"/>
      <path id="Path_901" data-name="Path 901" d="M202.788,112.89c-8.168,4.383-18.236,4.7-27.054,1.991a1.688,1.688,0,0,0-.363,0l.431,11.62c14.322,3.936,27.895-5.624,27.895-5.624C202.44,118.885,202.508,115.441,202.788,112.89Z" transform="translate(-74.532 -42.665)" fill="#f47a63"/>
      <path id="Path_902" data-name="Path 902" d="M172.233,117.746a15.829,15.829,0,0,0-4.209-4.716c-2.445,1.431-6.275,2.271-8.524,4.042-6.366,5-6.056,13.762-5.4,21.021.28,2.975,1,6.124,1,9.084a20.1,20.1,0,0,0,6.714,1.59,109.694,109.694,0,0,0,11.234-8.077C172.929,133.045,172.7,125.391,172.233,117.746Z" transform="translate(-69.225 -42.699)" fill="#f47a63"/>
      <path id="Path_903" data-name="Path 903" d="M174.311,106.608s.439,12.028-3.649,12.823-7.5-2.566-7.789-4.875a16.68,16.68,0,0,1,.712-5.571S167.128,105.382,174.311,106.608Z" transform="translate(-71.435 -41.077)" fill="#fbb5ad"/>
      <path id="Path_904" data-name="Path 904" d="M173.638,102.534c.628-2.793-3.028-5.3-5.231-3.21a4.148,4.148,0,0,0-3.164-1.514c-1.718,0-2.506,1.067-2.649,2.665a3.1,3.1,0,0,0-2.695.757,2.786,2.786,0,0,0-.583,3.149,2.846,2.846,0,0,0-2.271,2.733,3.467,3.467,0,0,0,.3,1.741,2.658,2.658,0,0,0-.265.53,2.74,2.74,0,0,0,.757,2.922,3.149,3.149,0,0,0,1.681.848,2.422,2.422,0,0,0,1.968,1.681,2.339,2.339,0,0,0,2.581-1.741,2.271,2.271,0,0,0,.038-.961,5.511,5.511,0,0,0,.939-3.664,2.029,2.029,0,0,0,.522-.144,2.271,2.271,0,0,0,1.143-1.173,3.263,3.263,0,0,0,1.635.431,1.552,1.552,0,0,0,1.317-.81,3.818,3.818,0,0,0,4.216-.689,2.672,2.672,0,0,0-.242-3.55Z" transform="translate(-69.999 -39)" fill="#d86212"/>
      <path id="Path_905" data-name="Path 905" d="M166.893,114.935a2.816,2.816,0,0,0-.878-2.044,1.514,1.514,0,0,0-2.12-.174,1.7,1.7,0,0,0-.25,1.953c.394.757,1.226.916,1.9,1.34.4.257.757-.136.712-.515a.568.568,0,0,0,.636-.56Z" transform="translate(-71.579 -42.537)" fill="#fbb5ad"/>
      <path id="Path_906" data-name="Path 906" d="M175.3,113.109c0-.28-.439-.235-.431.038v1.877a4.972,4.972,0,0,1,0,.863c-.083.5-.348.553-.757.712a.22.22,0,0,0,.151.409c.545-.212.984-.28,1.052-.908a24.133,24.133,0,0,0-.015-2.99Z" transform="translate(-74.162 -42.672)" fill="#56403d"/>
      <path id="Path_907" data-name="Path 907" d="M177.071,112.75a.22.22,0,1,0,.136.243.22.22,0,0,0-.136-.243Z" transform="translate(-74.862 -42.631)" fill="#56403d"/>
      <path id="Path_908" data-name="Path 908" d="M171.3,113.62a.22.22,0,1,0,.136.243A.22.22,0,0,0,171.3,113.62Z" transform="translate(-73.448 -42.842)" fill="#56403d"/>
      <path id="Path_909" data-name="Path 909" d="M155.855,123.41a13.853,13.853,0,0,0-3.55,8.948c-.22,5.715,1.93,18.115,11.983,25.018,0,0,4.08-3.512,7.381-3.785,0,0-7.683-9.969-7.524-14.451" transform="translate(-68.863 -45.222)" fill="#f47a63"/>
      <path id="Path_910" data-name="Path 910" d="M174.031,155.634c-4.784-7.04-8.925-14.723-9.765-23.33-.045-.477-.8-.484-.757,0,.855,8.751,5,16.548,9.841,23.709C173.645,156.414,174.3,156.036,174.031,155.634Z" transform="translate(-71.602 -47.295)" fill="#56403d"/>
      <path id="Path_911" data-name="Path 911" d="M218.156,93.672,233.6,84.754a.81.81,0,0,1,1.219.7V97.252a1.287,1.287,0,0,1-.651,1.12l-15.208,8.6a.969.969,0,0,1-1.469-.825V94.837A1.347,1.347,0,0,1,218.156,93.672Z" transform="translate(-84.843 -35.801)" fill="#9fd2ff"/>
      <path id="Path_912" data-name="Path 912" d="M73.72,192.832a.341.341,0,0,1,0-.5l.454-.454a.371.371,0,0,1,.227-.114q.25-.212.515-.4a23.747,23.747,0,0,1,.288-2.718.348.348,0,0,1,.068-.151L60.457,180.1c-2.551,1.688-8.047,5.761-13.527,9.841,4.867,3.785,10.6,6.2,16.01,9.084l10.742-6.056Z" transform="translate(-43.023 -58.998)" fill="url(#linear-gradient-2)"/>
      <path id="Path_913" data-name="Path 913" d="M67.5,173.253c-3.906-.341-8.016-1.514-10.9-4.186v11.574a12.013,12.013,0,0,0,12.013,12.013h0a12.013,12.013,0,0,0,12.013-12.013V168.87C76.546,170.535,71.891,173.631,67.5,173.253Z" transform="translate(-45.373 -56.269)" fill="#9fd2ff"/>
      <ellipse id="Ellipse_83" data-name="Ellipse 83" cx="12.013" cy="6.366" rx="12.013" ry="6.366" transform="translate(11.242 106.356)" fill="#5ed18d"/>
      <path id="Path_914" data-name="Path 914" d="M69.175,165.833s-8.168-1.2-10.325-14.383C58.85,151.42,65.776,155.265,69.175,165.833Z" transform="translate(-45.92 -52.036)" fill="#5ed18d"/>
      <path id="Path_915" data-name="Path 915" d="M72.743,159.207s-9.371-16.813,0-28.107A47.107,47.107,0,0,1,72.743,159.207Z" transform="translate(-48.284 -47.09)" fill="#5ed18d"/>
      <path id="Path_916" data-name="Path 916" d="M69.175,149.653s-8.168-1.2-10.325-14.383C58.85,135.24,65.776,139.085,69.175,149.653Z" transform="translate(-45.92 -48.104)" fill="#5ed18d"/>
      <path id="Path_917" data-name="Path 917" d="M73.754,156.534s-2.044-7.994,9.3-15.094C83.065,141.448,82.232,149.35,73.754,156.534Z" transform="translate(-49.507 -49.603)" fill="#5ed18d"/>
      <ellipse id="Ellipse_84" data-name="Ellipse 84" cx="12.013" cy="6.366" rx="12.013" ry="6.366" transform="translate(11.242 106.356)" fill="#146666"/>
      <path id="Path_918" data-name="Path 918" d="M69.175,165.833s-8.168-1.2-10.325-14.383C58.85,151.42,65.776,155.265,69.175,165.833Z" transform="translate(-45.92 -52.036)" fill="#5ed18d"/>
      <path id="Path_919" data-name="Path 919" d="M72.743,159.207s-9.371-16.813,0-28.107A47.107,47.107,0,0,1,72.743,159.207Z" transform="translate(-48.284 -47.09)" fill="#5ed18d"/>
      <path id="Path_920" data-name="Path 920" d="M69.175,149.653s-8.168-1.2-10.325-14.383C58.85,135.24,65.776,139.085,69.175,149.653Z" transform="translate(-45.92 -48.104)" fill="#5ed18d"/>
      <path id="Path_921" data-name="Path 921" d="M73.754,156.534s-2.044-7.994,9.3-15.094C83.065,141.448,82.232,149.35,73.754,156.534Z" transform="translate(-49.507 -49.603)" fill="#5ed18d"/>
    </g>
  </g>
</svg>
