<svg xmlns="http://www.w3.org/2000/svg" xmlns:xlink="http://www.w3.org/1999/xlink" width="240" height="196.495" viewBox="0 0 240 196.495">
  <defs>
    <linearGradient id="linear-gradient" x1="0.552" y1="0.267" x2="0.374" y2="0.746" gradientUnits="objectBoundingBox">
      <stop offset="0"/>
      <stop offset="1" stop-color="#fff"/>
    </linearGradient>
    <linearGradient id="linear-gradient-2" x1="0.705" y1="0.105" x2="0.415" y2="0.651" xlink:href="#linear-gradient"/>
    <linearGradient id="linear-gradient-3" x1="0.703" y1="0.253" x2="0.427" y2="0.706" xlink:href="#linear-gradient"/>
    <linearGradient id="linear-gradient-4" x1="0.881" y1="-0.103" x2="0.484" y2="0.553" xlink:href="#linear-gradient"/>
  </defs>
  <g id="why3" transform="translate(-10.51 -4.156)">
    <g id="Layer_2" data-name="Layer 2" transform="translate(10.51 4.156)">
      <path id="Path_796" data-name="Path 796" d="M126.959,225.309,15.176,159.179c-3.56-2.024-6.608-5.284-3.142-7.423L124.221,87.063c1.686-1.046,4.242-1.727,5.948-.736L247.5,154.482c3.56,2.065,4.194,7.848.634,9.913L141.693,225.2A14.826,14.826,0,0,1,126.959,225.309Z" transform="translate(-10.51 -30.721)" fill="#3fc1c9"/>
      <path id="Path_797" data-name="Path 797" d="M27.52,191.415,50.153,177.17l52.02,17.653L72.887,216.416S33.283,194.7,27.52,191.415Z" transform="translate(-16.041 -60.42)" opacity="0.46" fill="url(#linear-gradient)"/>
      <path id="Path_798" data-name="Path 798" d="M132.72,256.315l22.633-14.245,26.014,13.712-25.71,14.778S138.483,259.608,132.72,256.315Z" transform="translate(-50.325 -81.525)" opacity="0.46" fill="url(#linear-gradient-2)"/>
      <path id="Path_799" data-name="Path 799" d="M154.65,174.469l46.332-29.759,35.764,35.029-35.177,20.244S165.838,180.852,154.65,174.469Z" transform="translate(-57.488 -49.864)" opacity="0.46" fill="url(#linear-gradient-3)"/>
      <path id="Path_800" data-name="Path 800" d="M48.53,110l54.976,7.092a6.2,6.2,0,0,1,5.4,5.884l2.024,45.792a5.135,5.135,0,0,1-5.6,5.338l-26.115-2.247Z" transform="translate(-22.874 -38.576)" fill="#f4aa06"/>
      <path id="Path_801" data-name="Path 801" d="M111.635,139.556,55.62,132.68v18.537l56.832,7.355Z" transform="translate(-25.179 -45.952)" fill="#f29808"/>
      <path id="Path_802" data-name="Path 802" d="M75.127,144.681c-3.59-.324-6.377-.864-9.967-1.161l19.461,39.24,26.115,2.247a5.135,5.135,0,0,0,5.574-5.338l-1.323-30.515C101.559,147.845,88.582,145.868,75.127,144.681Z" transform="translate(-28.315 -49.477)" fill="#ea8c06"/>
      <path id="Path_803" data-name="Path 803" d="M53.51,112.46l48.242,15.595.634,48.876L65.758,161.667" transform="translate(-24.493 -39.376)" fill="#85b23b"/>
      <path id="Path_804" data-name="Path 804" d="M55.154,115.508c1.228-.277,42.668,14.582,42.668,14.582l.547,41.561L90.763,168.4l4.13,5.466,6.836,2.848-.634-48.876L51.49,111.79" transform="translate(-23.836 -39.159)" fill="#b8e06c"/>
      <path id="Path_805" data-name="Path 805" d="M46.867,162.729,88.253,187.7a2.787,2.787,0,0,0,4.231-2.389V140.123a5.8,5.8,0,0,0-2.814-4.973L48.3,110.358a2.787,2.787,0,0,0-4.224,2.4v45.03A5.776,5.776,0,0,0,46.867,162.729Z" transform="translate(-21.427 -38.563)" fill="#f99a10"/>
      <path id="Path_806" data-name="Path 806" d="M41.3,113.006l2.962-2.186.58,2.213Z" transform="translate(-20.523 -38.843)" fill="#f99a10"/>
      <path id="Path_807" data-name="Path 807" d="M109.68,226.678l2.915-2.153-1.977-.985Z" transform="translate(-42.808 -75.499)" fill="#f99a10"/>
      <path id="Path_808" data-name="Path 808" d="M42.52,165.939l41.386,24.968a2.787,2.787,0,0,0,4.231-2.389V143.333a5.8,5.8,0,0,0-2.814-4.973L43.964,113.568a2.787,2.787,0,0,0-4.224,2.4v45A5.776,5.776,0,0,0,42.52,165.939Z" transform="translate(-20.015 -39.607)" fill="#ffba31"/>
      <path id="Path_809" data-name="Path 809" d="M44.994,165.542l37.114,22.437a2.5,2.5,0,0,0,3.8-2.146V145.21a5.216,5.216,0,0,0-2.531-4.474L46.262,118.468a2.5,2.5,0,0,0-3.792,2.153v40.488A5.2,5.2,0,0,0,44.994,165.542Z" transform="translate(-20.903 -41.214)" fill="none" stroke="#f2f2f2" stroke-linecap="round" stroke-miterlimit="10" stroke-width="1" stroke-dasharray="2.98 2.98"/>
      <ellipse id="Ellipse_58" data-name="Ellipse 58" cx="17.545" cy="10.277" rx="17.545" ry="10.277" transform="translate(100.719 157.204)" fill="#ff912e"/>
      <path id="Path_810" data-name="Path 810" d="M159.89,250.919V247.95l1.91,2.369Z" transform="translate(-59.16 -83.438)" fill="#e0944f"/>
      <path id="Path_811" data-name="Path 811" d="M210.81,247.95v2.969h-2.22l1.626-2.382Z" transform="translate(-75.02 -83.438)" fill="#e0944f"/>
      <ellipse id="Ellipse_59" data-name="Ellipse 59" cx="17.545" cy="10.277" rx="17.545" ry="10.277" transform="translate(100.719 154.235)" fill="#ffb92c"/>
      <path id="Path_812" data-name="Path 812" d="M190.247,244.534a1.35,1.35,0,0,1,.142.776l-.067.27h-3.2a1.453,1.453,0,0,0,.061-.27,1.2,1.2,0,0,0-.189-.58,1.754,1.754,0,0,0-.776-.709,3.5,3.5,0,0,0-1.5-.391,3.246,3.246,0,0,0-1.431.223q-.675.29-.52.756a2.774,2.774,0,0,0,.675,1.005,12.194,12.194,0,0,1,.972,1.113,1.168,1.168,0,0,1,.175,1.235,2.76,2.76,0,0,1-1.559,1.215,9.21,9.21,0,0,1-3.374.675,10.857,10.857,0,0,1-3.711-.526l-1.842.789-2.159-1.053,1.788-.769a4.047,4.047,0,0,1-.857-.769,2.281,2.281,0,0,1-.425-.715,2.349,2.349,0,0,1-.108-.58,1.254,1.254,0,0,1,0-.4l.061-.155H175.6a2.552,2.552,0,0,0-.074.324,1.35,1.35,0,0,0,.256.729,2.4,2.4,0,0,0,1.059.9,4.548,4.548,0,0,0,1.862.486,3.874,3.874,0,0,0,1.714-.277q.675-.283.5-.749a2.767,2.767,0,0,0-.675-1.005,10.255,10.255,0,0,1-.978-1.113,1.147,1.147,0,0,1-.135-1.242,2.983,2.983,0,0,1,1.62-1.154,8.813,8.813,0,0,1,3.259-.641,9.4,9.4,0,0,1,3.475.54l1.835-.79,2.024,1.093-1.842.789a2.625,2.625,0,0,1,.742.972Z" transform="translate(-63.09 -81.399)" fill="#ea8b24"/>
      <ellipse id="Ellipse_60" data-name="Ellipse 60" cx="14.724" cy="8.624" rx="14.724" ry="8.624" transform="translate(103.566 156.01)" fill="none" stroke="#f7931e" stroke-miterlimit="10" stroke-width="6"/>
      <ellipse id="Ellipse_61" data-name="Ellipse 61" cx="17.545" cy="10.277" rx="17.545" ry="10.277" transform="translate(100.719 149.795)" fill="#ff912e"/>
      <path id="Path_813" data-name="Path 813" d="M159.89,239.939V236.97l1.91,2.375Z" transform="translate(-59.16 -79.867)" fill="#e0944f"/>
      <path id="Path_814" data-name="Path 814" d="M210.81,236.97v2.969h-2.22l1.626-2.382Z" transform="translate(-75.02 -79.867)" fill="#e0944f"/>
      <ellipse id="Ellipse_62" data-name="Ellipse 62" cx="17.545" cy="10.277" rx="17.545" ry="10.277" transform="translate(100.719 146.826)" fill="#ffb92c"/>
      <path id="Path_815" data-name="Path 815" d="M190.247,233.548a1.35,1.35,0,0,1,.142.776l-.067.27h-3.2a1.453,1.453,0,0,0,.061-.27,1.2,1.2,0,0,0-.189-.58,1.755,1.755,0,0,0-.776-.709,3.5,3.5,0,0,0-1.5-.391,3.246,3.246,0,0,0-1.431.223q-.675.29-.52.756a2.774,2.774,0,0,0,.675,1.005,12.191,12.191,0,0,1,.972,1.113,1.167,1.167,0,0,1,.175,1.235,2.76,2.76,0,0,1-1.559,1.215,9.211,9.211,0,0,1-3.374.675,10.858,10.858,0,0,1-3.711-.526l-1.842.79-2.159-1.053,1.788-.769a4.048,4.048,0,0,1-.857-.769,2.281,2.281,0,0,1-.425-.715,2.35,2.35,0,0,1-.108-.58,1.254,1.254,0,0,1,0-.4l.061-.155H175.6a2.552,2.552,0,0,0-.074.324,1.35,1.35,0,0,0,.256.729,2.4,2.4,0,0,0,1.059.9,4.549,4.549,0,0,0,1.862.486,3.874,3.874,0,0,0,1.714-.277q.675-.283.5-.749a2.767,2.767,0,0,0-.675-1.005,10.256,10.256,0,0,1-.978-1.113,1.147,1.147,0,0,1-.135-1.242,2.983,2.983,0,0,1,1.62-1.167,8.813,8.813,0,0,1,3.259-.641,9.4,9.4,0,0,1,3.475.54l1.835-.79,2.024,1.093-1.842.79A2.625,2.625,0,0,1,190.247,233.548Z" transform="translate(-63.09 -77.821)" fill="#ea8b24"/>
      <ellipse id="Ellipse_63" data-name="Ellipse 63" cx="14.724" cy="8.624" rx="14.724" ry="8.624" transform="translate(103.566 148.601)" fill="none" stroke="#f7931e" stroke-miterlimit="10" stroke-width="2"/>
      <ellipse id="Ellipse_64" data-name="Ellipse 64" cx="17.545" cy="10.277" rx="17.545" ry="10.277" transform="translate(100.685 145.443)" fill="#ff912e"/>
      <path id="Path_816" data-name="Path 816" d="M159.84,233.489V230.52l1.91,2.369Z" transform="translate(-59.143 -77.769)" fill="#e0944f"/>
      <path id="Path_817" data-name="Path 817" d="M210.767,230.52v2.969H208.54l1.633-2.382Z" transform="translate(-75.004 -77.769)" fill="#e0944f"/>
      <ellipse id="Ellipse_65" data-name="Ellipse 65" cx="17.545" cy="10.277" rx="17.545" ry="10.277" transform="translate(100.685 142.473)" fill="#ffb92c"/>
      <path id="Path_818" data-name="Path 818" d="M190.177,227.065a1.349,1.349,0,0,1,.142.776l-.067.27h-3.2a1.453,1.453,0,0,0,.061-.27,1.2,1.2,0,0,0-.189-.58,1.754,1.754,0,0,0-.776-.709,3.5,3.5,0,0,0-1.5-.391,3.246,3.246,0,0,0-1.431.223q-.675.29-.52.756a2.773,2.773,0,0,0,.675,1.005,12.191,12.191,0,0,1,.972,1.113,1.167,1.167,0,0,1,.175,1.235,2.76,2.76,0,0,1-1.559,1.215,9.211,9.211,0,0,1-3.374.675,10.858,10.858,0,0,1-3.711-.526l-1.842.79-2.159-1.053,1.788-.769a4.05,4.05,0,0,1-.857-.769,2.281,2.281,0,0,1-.425-.715,2.35,2.35,0,0,1-.108-.58,1.256,1.256,0,0,1,0-.4l.061-.155h3.205a2.554,2.554,0,0,0-.074.324,1.35,1.35,0,0,0,.256.729,2.4,2.4,0,0,0,1.059.9,4.548,4.548,0,0,0,1.862.486,3.874,3.874,0,0,0,1.714-.277q.675-.283.5-.749a2.766,2.766,0,0,0-.675-1.005,10.253,10.253,0,0,1-.978-1.113,1.147,1.147,0,0,1-.135-1.242,2.983,2.983,0,0,1,1.633-1.235,8.814,8.814,0,0,1,3.259-.641,9.4,9.4,0,0,1,3.475.54l1.835-.79,2.024,1.093-1.856.843A2.625,2.625,0,0,1,190.177,227.065Z" transform="translate(-63.067 -75.691)" fill="#ea8b24"/>
      <ellipse id="Ellipse_66" data-name="Ellipse 66" cx="14.724" cy="8.624" rx="14.724" ry="8.624" transform="translate(103.539 144.248)" fill="none" stroke="#f7931e" stroke-miterlimit="10" stroke-width="6"/>
      <ellipse id="Ellipse_67" data-name="Ellipse 67" cx="17.545" cy="10.277" rx="17.545" ry="10.277" transform="translate(100.685 137.365)" fill="#ff912e"/>
      <path id="Path_819" data-name="Path 819" d="M159.84,221.529V218.56l1.91,2.369Z" transform="translate(-59.143 -73.88)" fill="#e0944f"/>
      <path id="Path_820" data-name="Path 820" d="M210.767,218.56v2.969H208.54l1.633-2.389Z" transform="translate(-75.004 -73.88)" fill="#e0944f"/>
      <ellipse id="Ellipse_68" data-name="Ellipse 68" cx="17.545" cy="10.277" rx="17.545" ry="10.277" transform="translate(100.685 134.403)" fill="#ffb92c"/>
      <path id="Path_821" data-name="Path 821" d="M190.177,215.105a1.349,1.349,0,0,1,.142.776l-.067.27h-3.2a1.453,1.453,0,0,0,.061-.27,1.2,1.2,0,0,0-.189-.58,1.755,1.755,0,0,0-.776-.709,3.5,3.5,0,0,0-1.5-.391,3.246,3.246,0,0,0-1.431.223q-.675.29-.52.756a2.773,2.773,0,0,0,.675,1.005,12.193,12.193,0,0,1,.972,1.113,1.167,1.167,0,0,1,.175,1.235,2.76,2.76,0,0,1-1.559,1.215,9.211,9.211,0,0,1-3.374.675,10.858,10.858,0,0,1-3.711-.526l-1.842.79-2.159-1.053,1.788-.769a4.05,4.05,0,0,1-.857-.769,2.281,2.281,0,0,1-.425-.715,2.349,2.349,0,0,1-.108-.58,1.256,1.256,0,0,1,0-.4l.061-.155h3.205a2.554,2.554,0,0,0-.074.324,1.35,1.35,0,0,0,.256.729,2.4,2.4,0,0,0,1.059.9,4.549,4.549,0,0,0,1.862.486,3.873,3.873,0,0,0,1.714-.277q.675-.283.5-.749a2.766,2.766,0,0,0-.675-1.005,10.253,10.253,0,0,1-.978-1.113,1.147,1.147,0,0,1-.135-1.242,2.983,2.983,0,0,1,1.633-1.235,8.813,8.813,0,0,1,3.259-.641,9.4,9.4,0,0,1,3.475.54l1.835-.79,2.024,1.093-1.856.816A2.625,2.625,0,0,1,190.177,215.105Z" transform="translate(-63.067 -71.802)" fill="#ea8b24"/>
      <ellipse id="Ellipse_69" data-name="Ellipse 69" cx="14.724" cy="8.624" rx="14.724" ry="8.624" transform="translate(103.539 136.178)" fill="none" stroke="#f7931e" stroke-miterlimit="10" stroke-width="2"/>
      <ellipse id="Ellipse_70" data-name="Ellipse 70" cx="17.545" cy="10.277" rx="17.545" ry="10.277" transform="translate(93.835 128.573)" fill="#ff912e"/>
      <path id="Path_822" data-name="Path 822" d="M149.68,208.492V205.53l1.91,2.369Z" transform="translate(-55.834 -69.643)" fill="#e0944f"/>
      <path id="Path_823" data-name="Path 823" d="M200.607,205.53v2.962H198.38l1.626-2.382Z" transform="translate(-71.695 -69.643)" fill="#e0944f"/>
      <ellipse id="Ellipse_71" data-name="Ellipse 71" cx="17.545" cy="10.277" rx="17.545" ry="10.277" transform="translate(93.835 125.603)" fill="#ffb92c"/>
      <path id="Path_824" data-name="Path 824" d="M180.037,202.075a1.35,1.35,0,0,1,.142.776l-.067.27h-3.2a1.455,1.455,0,0,0,.061-.27,1.2,1.2,0,0,0-.189-.58,1.754,1.754,0,0,0-.776-.709,3.5,3.5,0,0,0-1.5-.391,3.246,3.246,0,0,0-1.431.223q-.675.29-.52.756a2.773,2.773,0,0,0,.675,1.005,12.2,12.2,0,0,1,.972,1.113,1.167,1.167,0,0,1,.175,1.235,2.76,2.76,0,0,1-1.559,1.215,9.211,9.211,0,0,1-3.374.675,10.858,10.858,0,0,1-3.711-.526l-1.842.79L161.73,206.6l1.788-.769a4.049,4.049,0,0,1-.857-.769,2.281,2.281,0,0,1-.425-.715,2.349,2.349,0,0,1-.108-.58,1.254,1.254,0,0,1,0-.4l.061-.155h3.205a2.553,2.553,0,0,0-.074.324,1.35,1.35,0,0,0,.256.729,2.4,2.4,0,0,0,1.059.9,4.549,4.549,0,0,0,1.862.486,3.873,3.873,0,0,0,1.714-.277q.675-.283.5-.749a2.766,2.766,0,0,0-.675-1.005,10.257,10.257,0,0,1-.978-1.113,1.147,1.147,0,0,1-.135-1.242,2.983,2.983,0,0,1,1.633-1.235,8.813,8.813,0,0,1,3.259-.641,9.4,9.4,0,0,1,3.475.54l1.835-.79,2.024,1.093-1.876.837A2.625,2.625,0,0,1,180.037,202.075Z" transform="translate(-59.765 -67.565)" fill="#ea8b24"/>
      <ellipse id="Ellipse_72" data-name="Ellipse 72" cx="14.724" cy="8.624" rx="14.724" ry="8.624" transform="translate(96.682 127.385)" fill="none" stroke="#f7931e" stroke-miterlimit="10" stroke-width="2"/>
      <path id="Path_825" data-name="Path 825" d="M210.392,4.736c9.386,5.878,33,19.569,41.048,24.475,1.822,1.12,2.1,2.787,2.132,4.926v99.918a3.185,3.185,0,0,1-4.1.628l-39.618-22.39c-1.97-1.161-3.522-2.355-3.522-4.643l.344-101.106C206.661,4.338,208.537,3.555,210.392,4.736Z" transform="translate(-74.306 -4.166)" fill="#9fd2ff"/>
      <path id="Path_826" data-name="Path 826" d="M206.719,5.805,219.6,13.228v2.78a1.35,1.35,0,0,0,.675,1.154l9.96,5.783a.877.877,0,0,0,1.35-.763V20.158L250.3,31.131a1.188,1.188,0,0,1,.587,1.026v99.9a.81.81,0,0,1-1.215.675l-43.37-25.1a4.3,4.3,0,0,0,1.91,3.988c2.247,1.431,41.73,23.773,41.73,23.773s3.124,1.41,4.049-2.315V32.534A4.109,4.109,0,0,0,252.3,29.2c-1.808-1.316-42.081-24.725-42.081-24.725S207.367,3.18,206.719,5.805Z" transform="translate(-74.291 -4.156)" fill="#124577"/>
      <path id="Path_827" data-name="Path 827" d="M217.23,107.29v-.162a2.24,2.24,0,0,1,3.374-1.937l21,12.254a2.24,2.24,0,0,1,1.113,1.937h0a2.24,2.24,0,0,1-3.374,1.943l-21-12.1a2.24,2.24,0,0,1-1.113-1.937Z" transform="translate(-77.845 -36.913)" fill="#124577"/>
      <path id="Path_828" data-name="Path 828" d="M232.587,107.39a13.253,13.253,0,0,0-4.724,1.012c-2.375,1.019,4.629,3.084,4.629,3.084" transform="translate(-81.138 -37.728)" fill="#f2ae16"/>
      <path id="Path_829" data-name="Path 829" d="M232.582,116.65c2.024,1.14,3.975,2.477,5.985,3.664a8.239,8.239,0,0,0,.978-7.247c-1.35-4.211-5.587-6.613-9.447-5.4a7.126,7.126,0,0,0-4.609,4.973C227.892,113.978,230.234,115.327,232.582,116.65Z" transform="translate(-80.53 -37.716)" fill="#ea8b24"/>
      <path id="Path_830" data-name="Path 830" d="M231.772,116.858c1.539.864,3.023,1.835,4.528,2.773a8.388,8.388,0,0,0,.243-5.925c-1.35-4.211-5.587-6.613-9.447-5.4a6.957,6.957,0,0,0-4.1,3.624C225.976,113.551,228.871,115.225,231.772,116.858Z" transform="translate(-79.719 -37.924)" fill="#ffd008"/>
      <path id="Path_831" data-name="Path 831" d="M232.545,116.977c1.262.675,2.483,1.491,3.718,2.267a7.355,7.355,0,0,0,.189-5.135c-1.194-3.691-4.892-5.8-8.26-4.724a6.073,6.073,0,0,0-3.563,3.131C227.282,113.987,229.907,115.5,232.545,116.977Z" transform="translate(-80.249 -38.285)" fill="none" stroke="#f7931e" stroke-miterlimit="10" stroke-width="1"/>
      <path id="Path_832" data-name="Path 832" d="M233.673,118.249l.4.229a1.822,1.822,0,0,0-.344-1.107,2.106,2.106,0,0,0-.9-.675q-.533-.216-1.059-.378a3.819,3.819,0,0,1-.891-.391.683.683,0,0,1-.074-1.154,1.086,1.086,0,0,1,.729-.216,1.626,1.626,0,0,1,.722.189,2.106,2.106,0,0,1,.459.29l.169.182.958-.978-.169-.182a2.517,2.517,0,0,0-.574-.418,3.212,3.212,0,0,0-.918-.351V112.27h-1.35v1.005A2.389,2.389,0,0,0,229.4,114a1.957,1.957,0,0,0-.553,1.35,2.469,2.469,0,0,0,0,.25Z" transform="translate(-81.618 -39.315)" fill="#ea8b24"/>
      <path id="Path_833" data-name="Path 833" d="M242.52,62c.938,7.524-2.51,14.1-7.76,14.643s-10.23-5.081-11.175-12.605,2.53-14.083,7.76-14.65S241.576,54.472,242.52,62Z" transform="translate(-79.862 -18.854)" fill="#124577"/>
      <path id="Path_834" data-name="Path 834" d="M227.96,67.152,229.5,64.73l2.753,4.2,6.12-9.454,2.423,1.984-8.307,12.6Z" transform="translate(-81.334 -22.147)" fill="#fff"/>
      <path id="Path_835" data-name="Path 835" d="M84.38,130.35a10.582,10.582,0,0,1,.189-1.35" transform="translate(-34.567 -44.755)" fill="none" stroke="#42210b" stroke-linecap="round" stroke-miterlimit="10" stroke-width="2"/>
      <path id="Path_836" data-name="Path 836" d="M87.07,103.277c3.374-9.123,12.821-24.792,37.991-32.735,38.74-12.18,56.6,14.414,61.933,24.8" transform="translate(-35.469 -24.727)" fill="none" stroke="#42210b" stroke-linecap="round" stroke-miterlimit="10" stroke-width="2" stroke-dasharray="3.9 8.77"/>
      <path id="Path_837" data-name="Path 837" d="M237,112.76c.351.8.513,1.248.513,1.248" transform="translate(-84.272 -39.474)" fill="none" stroke="#42210b" stroke-linecap="round" stroke-miterlimit="10" stroke-width="2"/>
      <path id="Path_838" data-name="Path 838" d="M147.089,50a22.943,22.943,0,0,0-8.1,1.937c-4.049,1.856,8.1,5.149,8.1,5.149" transform="translate(-52.086 -19.065)" fill="#f2ae16"/>
      <ellipse id="Ellipse_73" data-name="Ellipse 73" cx="12.646" cy="13.854" rx="12.646" ry="13.854" transform="matrix(0.944, -0.329, 0.329, 0.944, 79.889, 35.716)" fill="#ea8b24"/>
      <ellipse id="Ellipse_74" data-name="Ellipse 74" cx="12.646" cy="13.854" rx="12.646" ry="13.854" transform="matrix(0.944, -0.329, 0.329, 0.944, 76.114, 36.55)" fill="#ffd008"/>
      <ellipse id="Ellipse_75" data-name="Ellipse 75" cx="11.087" cy="12.14" rx="11.087" ry="12.14" transform="matrix(0.944, -0.329, 0.329, 0.944, 78.15, 37.655)" fill="none" stroke="#f7931e" stroke-miterlimit="10" stroke-width="1"/>
      <path id="Path_839" data-name="Path 839" d="M148.066,60.745a4.353,4.353,0,0,1,1.012.675l.29.31-1.626,1.727q-.108-.121-.3-.3a3.637,3.637,0,0,0-.8-.479,2.814,2.814,0,0,0-1.255-.3,1.883,1.883,0,0,0-1.248.4,1.221,1.221,0,0,0-.472.965,1.154,1.154,0,0,0,.675,1.019,6.6,6.6,0,0,0,1.559.675q.918.263,1.842.614a3.644,3.644,0,0,1,1.572,1.161,3.212,3.212,0,0,1,.675,2.058,3.678,3.678,0,0,1-.9,2.5,4.339,4.339,0,0,1-2.531,1.35v1.761h-2.4V73.208a6.524,6.524,0,0,1-1.35-.351,6.019,6.019,0,0,1-1.08-.513,8.057,8.057,0,0,1-.756-.533,4.238,4.238,0,0,1-.472-.425l-.148-.182,1.606-1.6q.121.142.351.364a4.265,4.265,0,0,0,1.005.6,3.664,3.664,0,0,0,1.633.378,2.335,2.335,0,0,0,1.532-.466,1.458,1.458,0,0,0,.547-1.167,1.167,1.167,0,0,0-.675-1.026,6.336,6.336,0,0,0-1.518-.709q-.924-.256-1.842-.607a3.651,3.651,0,0,1-1.566-1.161,3.212,3.212,0,0,1-.675-2.058,3.374,3.374,0,0,1,.9-2.321,4.13,4.13,0,0,1,2.45-1.275V58.41h2.362v1.748A5.547,5.547,0,0,1,148.066,60.745Z" transform="translate(-52.801 -21.799)" fill="#ea8b24"/>
      <path id="Path_840" data-name="Path 840" d="M276.555,192.44l-22.795,11.8,28.5,17.822,21.411-10.2" transform="translate(-89.784 -65.386)" opacity="0.46" fill="url(#linear-gradient-4)"/>
      <path id="Path_841" data-name="Path 841" d="M294.926,192.758c-.216-.263-6.471-1.694-7.558-1.073s.4,2.328,3.219,3.988,5.237,3.111,6.377,2.746,2.369-1.012,2.369-1.66V190.18" transform="translate(-100.566 -64.651)" fill="#1d3f75"/>
      <path id="Path_842" data-name="Path 842" d="M315.71,210.9c0,.378.756,1.9,0,2.267s-5.844,1.566-6.883,3-.675,2.531,0,2.908,12.538-1.761,12.538-1.761l-1.417-8.1" transform="translate(-107.48 -70.839)" fill="#1d3f75"/>
      <path id="Path_843" data-name="Path 843" d="M310.338,114.18s-.675-2.821-4.724-4.089-3.516,7.74-3.516,7.74" transform="translate(-105.496 -38.566)" fill="#1d3f75"/>
      <path id="Path_844" data-name="Path 844" d="M298.1,136.87c-.425.182-10.682,7.78-9.8,19.421.533,7.025,5.648,18.834,5.648,18.834s8.26,5.257,13.6,3.921" transform="translate(-100.997 -47.315)" fill="#f7931e"/>
      <path id="Path_845" data-name="Path 845" d="M298.638,141.85s-2.746,11.917-1.727,19.326,11.674,28.686,11.674,28.686a28.679,28.679,0,0,0,11.06-1.059s-6.451-25.157-7.031-27.944,0-17.848,0-17.848" transform="translate(-103.743 -48.934)" fill="#f7931e"/>
      <path id="Path_846" data-name="Path 846" d="M295.909,106.963s-15.4-6.694-19.569-9.123c0,0,.2,4.96.418,5.587S288.9,115.8,294.492,116.755" transform="translate(-97.095 -34.622)" fill="#1d3f75"/>
      <path id="Path_847" data-name="Path 847" d="M317.159,135.622q-2.274-7.119-4.049-14.373a.413.413,0,0,0-.8.216q1.775,7.254,4.049,14.373C316.525,136.344,317.321,136.128,317.159,135.622Z" transform="translate(-108.822 -42.139)" fill="#606060"/>
      <path id="Path_848" data-name="Path 848" d="M275.95,115.167a17.855,17.855,0,0,1-4.325-3.016c.081-1.4.169-4.589-1.444-4.271-.776.155-.675,1.046-.675,1.66a15.1,15.1,0,0,0,.088,1.627c-1.815.728-4.724-.291-5.7,1.538a.553.553,0,0,0,0,.553,1.008,1.008,0,0,0,.182.2,2.072,2.072,0,0,0-.736.587.56.56,0,0,0,.108.864,1.483,1.483,0,0,0,.344.2.6.6,0,0,0,0,.155c0,.621.486.9,1.242.972a1.444,1.444,0,0,0,1.667.877,17.909,17.909,0,0,0,3.091-.574,30.431,30.431,0,0,1,3.2,1.545.56.56,0,0,0,.715-.81.54.54,0,0,0,.2-.729.594.594,0,0,0,.034-.715.547.547,0,0,0,.445-.277c.344.2.675.391,1.053.574C276.024,116.429,276.557,115.484,275.95,115.167Z" transform="translate(-92.808 -37.88)" fill="#fbb5ad"/>
      <path id="Path_849" data-name="Path 849" d="M268.743,115.168a17.464,17.464,0,0,1-4.379.445.138.138,0,1,0,0,.277,17.754,17.754,0,0,0,4.454-.459C268.992,115.391,268.918,115.127,268.743,115.168Z" transform="translate(-93.141 -40.256)" fill="#56403d"/>
      <path id="Path_850" data-name="Path 850" d="M268.054,117.995a13.138,13.138,0,0,1-3.907.351.139.139,0,0,0,0,.277,13.415,13.415,0,0,0,3.975-.358C268.27,118.19,268.2,117.927,268.054,117.995Z" transform="translate(-93.072 -41.173)" fill="#56403d"/>
      <path id="Path_851" data-name="Path 851" d="M268.336,119.588a9.164,9.164,0,0,1-2.443.364.138.138,0,0,0,0,.277,9.447,9.447,0,0,0,2.517-.371.14.14,0,1,0-.074-.27Z" transform="translate(-93.638 -41.693)" fill="#56403d"/>
      <path id="Path_852" data-name="Path 852" d="M290.124,125.514a25.759,25.759,0,0,0,1.053,6.748,16.129,16.129,0,0,0,7.686,1.923,20.13,20.13,0,0,0,6.289-.742c-.324-6.242-2.7-20.419-5.716-20.129-3.792.371-7.524,4.852-7.524,4.852-7.031,1.032-16.2-5.736-16.2-5.736l-1.937,5.932A24.623,24.623,0,0,0,290.124,125.514Z" transform="translate(-96.294 -39.367)" fill="#1d3f75"/>
      <path id="Path_853" data-name="Path 853" d="M304.568,181.656a85.354,85.354,0,0,1-4.683-30.177.169.169,0,1,0-.337,0,85.63,85.63,0,0,0,4.724,30.265C304.318,181.953,304.649,181.865,304.568,181.656Z" transform="translate(-104.665 -52.01)" fill="#fff"/>
      <path id="Path_854" data-name="Path 854" d="M298.756,120.292a17.929,17.929,0,0,1-7.666-.8c-.209-.067-.3.256-.088.331a18.152,18.152,0,0,0,7.76.81C298.972,120.609,298.972,120.272,298.756,120.292Z" transform="translate(-101.825 -41.661)" fill="#204472"/>
      <path id="Path_855" data-name="Path 855" d="M298,131.82h1.93l-.877,6.748S298.115,133.642,298,131.82Z" transform="translate(-104.171 -45.672)" fill="#204472"/>
      <path id="Path_856" data-name="Path 856" d="M304.888,106.978c-1.215.641-2.7-.4-3.718-1.046-1.215-.783-2.443-2.146-1.748-3.684.1-.229-.263-.364-.371-.135-.722,1.6.412,3.138,1.7,4.049,1.147.776,2.888,1.957,4.3,1.208C305.28,107.214,305.118,106.857,304.888,106.978Z" transform="translate(-104.439 -35.973)" fill="#009245"/>
      <path id="Path_857" data-name="Path 857" d="M298.522,99.865s-2.949,8.05-.182,9.656c3.037,1.761,6.208-1.255,6.208-1.255s3.016-6.957,0-8.772S298.994,98.852,298.522,99.865Z" transform="translate(-103.896 -34.852)" fill="#fbb5ad"/>
      <path id="Path_858" data-name="Path 858" d="M299.591,108.628a.594.594,0,0,1-.209-.115,24.013,24.013,0,0,1,1.12-2.126.225.225,0,1,0-.391-.223,24,24,0,0,0-1.194,2.281.236.236,0,0,0,.034.27,1.12,1.12,0,0,0,.52.351C299.747,109.161,299.861,108.716,299.591,108.628Z" transform="translate(-104.46 -37.292)" fill="#56403d"/>
      <path id="Path_859" data-name="Path 859" d="M308.2,103.362c.351-1.694-.425-2.861-1.518-4.191q-.135-.162-.277-.31a2.456,2.456,0,0,0,.924-.594.229.229,0,0,0-.068-.385,1.4,1.4,0,0,0-1.12.115,3.327,3.327,0,0,0-.324-1.127.229.229,0,0,0-.385-.034,1.215,1.215,0,0,0-.3.985,6.519,6.519,0,0,0-4.494-.9,3.752,3.752,0,0,0-1.579.675,2.234,2.234,0,0,0-1.221-.216A2.025,2.025,0,0,0,296,99.037a1.822,1.822,0,0,0,1.694,1.9,2.841,2.841,0,0,0,1.424-.128c-.425.344-.763.857,0,1.35,1.35.877,2.375.256,2.2,1.026-.142.628.567,1.269,1.161,1.5a7.182,7.182,0,0,0,.04.776,1.9,1.9,0,0,1,.945.283.243.243,0,0,1,.351.169,4.171,4.171,0,0,1-.85,2.922,8.638,8.638,0,0,0,2.827-1.748,7.713,7.713,0,0,0,2.409-3.725Zm-2.611-5.844v.115a.229.229,0,0,0,0,.074v.229A.824.824,0,0,1,305.592,97.519Z" transform="translate(-103.516 -34.267)" fill="#1c7377"/>
      <path id="Path_860" data-name="Path 860" d="M300.9,110.85a1.255,1.255,0,0,1-1.734.074c-.148-.121-.324.121-.175.243a1.545,1.545,0,0,0,2.1-.088C301.226,110.938,301.037,110.715,300.9,110.85Z" transform="translate(-104.475 -38.839)" fill="#56403d"/>
      <path id="Path_861" data-name="Path 861" d="M301.775,108.993a.223.223,0,1,0,.132.287A.223.223,0,0,0,301.775,108.993Z" transform="translate(-105.301 -38.244)" fill="#56403d"/>
      <path id="Path_862" data-name="Path 862" d="M298.225,106.733a.223.223,0,1,0,.132.287.223.223,0,0,0-.132-.287Z" transform="translate(-104.146 -37.51)" fill="#56403d"/>
      <path id="Path_863" data-name="Path 863" d="M305.062,109.639s1.91-2.8,2.4-1.471-2.585,2.7-2.585,2.7" transform="translate(-106.408 -37.864)" fill="#fbb5ad"/>
    </g>
  </g>
</svg>
