<svg xmlns="http://www.w3.org/2000/svg" xmlns:xlink="http://www.w3.org/1999/xlink" width="240" height="247.311" viewBox="0 0 240 247.311">
  <defs>
    <linearGradient id="linear-gradient" x1="0.298" y1="0.698" x2="1.91" y2="-1.66" gradientUnits="objectBoundingBox">
      <stop offset="0" stop-opacity="0"/>
      <stop offset="1"/>
    </linearGradient>
    <linearGradient id="linear-gradient-2" x1="0.165" y1="0.877" x2="2.627" y2="-2.12" xlink:href="#linear-gradient"/>
  </defs>
  <g id="why4" transform="translate(-66.977 -6.974)">
    <g id="Layer_1" data-name="Layer 1" transform="translate(66.977 6.974)">
      <path id="Path_755" data-name="Path 755" d="M74,199.844l105.941,61.2a13.465,13.465,0,0,0,13.463,0l111.051-63.96a5.689,5.689,0,0,0,.092-9.792L195.3,121.515a5.679,5.679,0,0,0-5.821,0L73.972,190.052A5.689,5.689,0,0,0,74,199.844Z" transform="translate(-67.294 -15.541)" fill="#9fd2ff"/>
      <path id="Path_756" data-name="Path 756" d="M259.708,46.315,191.449,7.544a4.448,4.448,0,0,0-4.355,0h0l-4.623,2.45,2.339.7a4.62,4.62,0,0,0-.074.758l-1.313,137.019a10.745,10.745,0,0,0,5.465,9.459l68.556,38.707a4.612,4.612,0,0,0,.425.2l-.86,2.136L261.3,196.9a4.568,4.568,0,0,0,.814-.425h0a4.439,4.439,0,0,0,2.007-3.7V53.916a8.738,8.738,0,0,0-4.411-7.6Z" transform="translate(-75.785 -6.974)" fill="#2c2cb5"/>
      <path id="Path_757" data-name="Path 757" d="M166.989,204.73,118.73,229.752s29.359,19.085,48.583,28.045l59.355-35.369" transform="translate(-70.934 -21.87)" opacity="0.62" fill="url(#linear-gradient)"/>
      <path id="Path_758" data-name="Path 758" d="M184.245,160.183,252.8,198.89a4.494,4.494,0,0,0,6.7-3.911V56.176a8.738,8.738,0,0,0-4.42-7.6L186.8,9.812a4.494,4.494,0,0,0-6.713,3.828l-1.3,137.037a10.745,10.745,0,0,0,5.465,9.506Z" transform="translate(-75.503 -7.144)" fill="#5f5cea"/>
      <path id="Path_759" data-name="Path 759" d="M183.99,152.9l70.377,39.733V60.593L185.238,21.35Z" transform="translate(-75.894 -8.057)" fill="#e2f2ee"/>
      <path id="Path_760" data-name="Path 760" d="M239.68,125.77v28.767l12.1,7.629V133.056Z" transform="translate(-80.099 -15.922)" fill="#9fd2ff"/>
      <path id="Path_761" data-name="Path 761" d="M240.71,132.87v5.742l2.617,1.729v-5.807Z" transform="translate(-80.173 -16.457)" fill="#5f5cea"/>
      <path id="Path_762" data-name="Path 762" d="M244.69,135.06V140.8l2.608,1.729v-5.807Z" transform="translate(-80.475 -16.622)" fill="#5f5cea"/>
      <path id="Path_763" data-name="Path 763" d="M248.66,137.39v5.742l2.617,1.729v-5.807Z" transform="translate(-80.776 -16.797)" fill="#5f5cea"/>
      <path id="Path_764" data-name="Path 764" d="M240.71,140.95v5.742l2.617,1.738v-5.816Z" transform="translate(-80.173 -17.065)" fill="#5f5cea"/>
      <path id="Path_765" data-name="Path 765" d="M244.69,143.14v5.742l2.608,1.738V144.8Z" transform="translate(-80.475 -17.23)" fill="#5f5cea"/>
      <path id="Path_766" data-name="Path 766" d="M248.66,145.47v5.751l2.617,1.729v-5.816Z" transform="translate(-80.776 -17.406)" fill="#5f5cea"/>
      <path id="Path_767" data-name="Path 767" d="M240.71,149.01v5.742l2.617,1.729v-5.807Z" transform="translate(-80.173 -17.673)" fill="#5f5cea"/>
      <path id="Path_768" data-name="Path 768" d="M244.69,151.2v5.742l2.608,1.729v-5.807Z" transform="translate(-80.475 -17.838)" fill="#5f5cea"/>
      <path id="Path_769" data-name="Path 769" d="M248.66,153.53v5.742l2.617,1.738v-5.816Z" transform="translate(-80.776 -18.013)" fill="#5f5cea"/>
      <path id="Path_770" data-name="Path 770" d="M224.034,146.6a10.412,10.412,0,0,1,5.03,8.516q0,.166,0,.324a6.75,6.75,0,0,1-3.948,5.973,7.175,7.175,0,0,1-4.475.055c-3.421-.925-7.656-3.209-9.247-6.537a7.028,7.028,0,0,1-.222-5.548c1.063-2.774,3.948-4.272,6.8-4.475A10.088,10.088,0,0,1,224.034,146.6Z" transform="translate(-77.9 -17.363)" fill="#f8951d"/>
      <path id="Path_771" data-name="Path 771" d="M227.528,150.061l-1.535.647a3.8,3.8,0,0,1-2.626-2.219c-.148-.361-.749-.2-.592.166a4.439,4.439,0,0,0,2.339,2.395l-.509.185c-1.664.592-3.7,1.3-5.474.925a2.108,2.108,0,0,1-1.692-2.922c.675-1.415,2.534-2.071,3.9-2.543.629-.213,1.258-.407,1.9-.564a9.866,9.866,0,0,0-5.3-1.193c-2.848.2-5.733,1.72-6.8,4.475a7.028,7.028,0,0,0,.222,5.548c1.609,3.329,5.844,5.548,9.247,6.537a7.175,7.175,0,0,0,4.475-.055,6.75,6.75,0,0,0,3.948-5.973q0-.166,0-.324a9.321,9.321,0,0,0-1.516-5.086Z" transform="translate(-77.899 -17.365)" fill="#393b5b"/>
      <path id="Path_772" data-name="Path 772" d="M211.553,157.928c-.3-.222-19.307.287-22.275,41.287l-11.1-6.38a10.967,10.967,0,0,0-6.316,10.948c.564,8.137,25.6,21.684,36.331,18.04s5.992-29.322,5.992-29.322l6.251-14.693" transform="translate(-74.956 -18.343)" fill="#393b5b"/>
      <path id="Path_773" data-name="Path 773" d="M213.744,213.945s11.494,3.865,13.26,1.563,10.107-20.537,5.224-26.464-15.4,0-18.808,2.774" transform="translate(-78.107 -20.497)" fill="#393b5b"/>
      <path id="Path_774" data-name="Path 774" d="M225.692,218.087c1.415-.536,7.573,1.849,8.572,1.276s1.248,6.935-6.2,5.141a56.951,56.951,0,0,1-13.269-5.095s1.923-5.548,4.9-5.9" transform="translate(-78.211 -22.531)" fill="#393b5b"/>
      <path id="Path_775" data-name="Path 775" d="M247.325,150.069l-.407.453v-.342a8.5,8.5,0,0,1,.925-1.332,1.184,1.184,0,0,0-.425-1.849l.083-.074c1.063-.989-.536-2.58-1.59-1.59l-.851.767a1.23,1.23,0,0,0-1.618-.1c-.583.453-1.3.869-1.572,1.59a7.73,7.73,0,0,0-.092,2.6v1.97c-.194-.351-.4-.7-.61-1.036-.777-1.211-2.709-.111-1.951,1.137a19.16,19.16,0,0,1,1.507,3l.092.25c-.129.694-.268,1.378-.425,2.071a16.367,16.367,0,0,1-.444,2.1.989.989,0,0,0-.222,1.369,1.073,1.073,0,0,0,1.627.37,1.221,1.221,0,0,0,1.516-.083,1.119,1.119,0,0,0,.73,0,1.091,1.091,0,0,0,1.452.342c1.026-.555,1.258-2.145,1.516-3.172a13.121,13.121,0,0,0,.444-4.235s0-.065,0-.1a13.732,13.732,0,0,1,1.849-2.441C249.924,150.605,248.333,149.006,247.325,150.069Z" transform="translate(-80.049 -17.372)" fill="#f8951d"/>
      <path id="Path_776" data-name="Path 776" d="M243.131,150.405l.333.092a7.443,7.443,0,0,1,.092-1.4,6.2,6.2,0,0,1,2-2.839.2.2,0,0,0-.287-.287,8.036,8.036,0,0,0-2.025,2.645,5.114,5.114,0,0,0-.213,1.757Z" transform="translate(-80.348 -17.44)" fill="#393b5b"/>
      <path id="Path_777" data-name="Path 777" d="M247.7,146.792c-.6.925-1.442,1.6-2.034,2.478a4.493,4.493,0,0,0-.592,1.951,4.424,4.424,0,0,1,.388.277,4.5,4.5,0,0,1,.925-2.432A21.263,21.263,0,0,0,248.057,147C248.2,146.774,247.844,146.57,247.7,146.792Z" transform="translate(-80.504 -17.498)" fill="#393b5b"/>
      <path id="Path_778" data-name="Path 778" d="M247.191,150.993q-.4.86-.721,1.748l.148.213a.61.61,0,0,1,.1.3c.24-.694.518-1.378.823-2.053C247.654,150.993,247.3,150.79,247.191,150.993Z" transform="translate(-80.609 -17.816)" fill="#393b5b"/>
      <path id="Path_779" data-name="Path 779" d="M225.114,162.327a4.466,4.466,0,0,0,1.849,4.2c2.247,1.387,11.762-9.635,11.762-9.635s4.374-.351,5.252,4.993-13.232,18.4-20.611,19.317-12.687-7.009-12.687-7.009.989-15.322,5.493-16.348" transform="translate(-77.905 -18.266)" fill="#393b5b"/>
      <path id="Path_780" data-name="Path 780" d="M74.08,144.035l4.207,2.081,2.46-2.349,3.514-4.022-6.843-1.295Z" transform="translate(-67.512 -16.877)" fill="#467ec1"/>
      <path id="Path_781" data-name="Path 781" d="M129.2,44.3,105.983,55.284l-3.32,10.07L68.5,83.949A2.857,2.857,0,0,0,67,86.825l6.473,50.118,63.35-36.987L133.029,57.2c-.092-1.775-.925-8.091-1.461-11.549A1.72,1.72,0,0,0,129.2,44.3Z" transform="translate(-66.977 -9.775)" fill="#2c2cb5"/>
      <path id="Path_782" data-name="Path 782" d="M139.7,48.828,114.517,61.847l-3.357,8.322L80.174,87.942a3.07,3.07,0,0,0-1.544,2.645v48.758l63.35-36.987V51.75l-.129-1.664a1.5,1.5,0,0,0-2.145-1.258Z" transform="translate(-67.854 -10.115)" fill="#9fd2ff"/>
      <path id="Path_783" data-name="Path 783" d="M164.626,211.1a11.234,11.234,0,0,0,3.93.823,1.933,1.933,0,0,0,1.655-2.913h0a3.255,3.255,0,0,1,1.008-3.292c.62-.453,2.219.222,3.292.758a1.923,1.923,0,0,0,2.007-.185l2.922-2.173a1.914,1.914,0,0,0-.213-3.209c-3.551-1.979-9.663-5.215-10.726-4.623-1.516.925-6.112,9.053-6.131,11.142a4.624,4.624,0,0,0,1.507,3.2A1.96,1.96,0,0,0,164.626,211.1Z" transform="translate(-74.226 -21.228)" fill="#393b5b"/>
      <path id="Path_784" data-name="Path 784" d="M226.721,148.7a1.359,1.359,0,0,0-.693-.314c-.1,0-.231,0-.25.139a.685.685,0,0,0,0,.231.194.194,0,0,0,0,.176,1.276,1.276,0,0,0,.536.536.453.453,0,0,0,.629-.111C227.091,149.111,226.906,148.852,226.721,148.7Z" transform="translate(-79.036 -17.626)" fill="#393b5b"/>
      <path id="Path_785" data-name="Path 785" d="M222.913,150.331a1.285,1.285,0,0,0-.684-.472.314.314,0,0,0-.333.472h0a.925.925,0,0,0,.277.758.592.592,0,0,0,.694,0A.546.546,0,0,0,222.913,150.331Z" transform="translate(-78.739 -17.736)" fill="#393b5b"/>
      <path id="Path_786" data-name="Path 786" d="M227.287,123.536s6.177-4.013,6.232-4.059-4.115-3.227-4.115-3.227l-2.4,4.577" transform="translate(-79.133 -15.205)" fill="#3d65af"/>
      <path id="Path_787" data-name="Path 787" d="M201.38,71.507l5.511-3.6,1.369,7.277-5.585-1.128" transform="translate(-77.187 -11.564)" fill="#3d65af"/>
      <path id="Path_788" data-name="Path 788" d="M209.361,67.7a1.96,1.96,0,0,0-2.94,1.655l-.61,31.06a2.774,2.774,0,0,0,1.359,2.385l21.851,13.029a2.774,2.774,0,0,0,4.207-2.386V83.076a2.774,2.774,0,0,0-1.442-2.441Z" transform="translate(-77.532 -11.528)" fill="#2c2cb5"/>
      <path id="Path_789" data-name="Path 789" d="M203.011,71.879a1.96,1.96,0,0,0-2.94,1.655l-.61,31.06a2.774,2.774,0,0,0,1.359,2.385l21.851,13.075a2.774,2.774,0,0,0,4.207-2.386V87.256a2.774,2.774,0,0,0-1.442-2.441Z" transform="translate(-77.049 -11.843)" fill="#5f5cea"/>
      <ellipse id="Ellipse_55" data-name="Ellipse 55" cx="4.707" cy="7.471" rx="4.707" ry="7.471" transform="matrix(0.997, -0.079, 0.079, 0.997, 129.859, 71.665)" fill="#9fd2ff"/>
      <rect id="Rectangle_100" data-name="Rectangle 100" width="3.551" height="14.749" rx="1.42" transform="translate(132.714 79.796)" fill="#9fd2ff"/>
      <ellipse id="Ellipse_56" data-name="Ellipse 56" cx="2.256" cy="1.359" rx="2.256" ry="1.359" transform="translate(144.92 67.35)" fill="#9fd2ff"/>
      <path id="Path_790" data-name="Path 790" d="M218,55.262c-10.569-2.543-10.486,9.691-10.486,9.691v4.374a4.521,4.521,0,0,0,.176,1.9,2.552,2.552,0,0,0,1.988.749c.629,0,1.535-.1,1.849-.675a3.847,3.847,0,0,0,.157-1.655c-.065-1.017-.083-2.044-.046-3.061.065-2.2.259-4.882,1.674-6.685a3.394,3.394,0,0,1,3.948-.98c5.428,1.8,5.28,8.322,5.28,8.322V79.266h4.512V66.931S226.251,57.25,218,55.262Z" transform="translate(-77.656 -10.585)" fill="#9fd2ff"/>
      <path id="Path_791" data-name="Path 791" d="M127.728,176,92.886,198.664s-7.4-1.119,11.8,7.851l38.041-24.735" transform="translate(-68.823 -19.706)" opacity="0.62" fill="url(#linear-gradient-2)"/>
      <path id="Path_792" data-name="Path 792" d="M125,171.81s1.674,10.1,11.928,11.013c13.648,1.221,14.351-11.013,14.351-11.013" transform="translate(-71.388 -19.39)" fill="#9fd2ff"/>
      <path id="Path_793" data-name="Path 793" d="M133.322,172H125s1.516,9.127,10.5,10.809A11.1,11.1,0,0,1,133.322,172Z" transform="translate(-71.385 -19.404)" fill="#393b5b" opacity="0.37"/>
      <ellipse id="Ellipse_57" data-name="Ellipse 57" cx="13.14" cy="3.902" rx="13.14" ry="3.902" transform="translate(53.612 148.518)" fill="#393b5b"/>
      <path id="Path_794" data-name="Path 794" d="M150.5,161.8c-2.441-.721-5.234.24-7.259,1.6a14.175,14.175,0,0,0-1.849,1.526,6.315,6.315,0,0,0-.758.4c1.073-3.162,1.729-6.408.166-9.6-.814-1.664-3.264-4.235-5.187-2.5a3.856,3.856,0,0,0-.98,2.922,16.209,16.209,0,0,0,.555,4c.37,1.479.851,2.931,1.211,4.411q.1.407.185.814a39.336,39.336,0,0,0-3.773-3.394,9.57,9.57,0,0,0-.869-.592,8.451,8.451,0,0,0-4.9-2.423,4.623,4.623,0,0,0-3.357.657,2.94,2.94,0,0,0-.925,3.116c.583,2.626,2.94,4.623,5.141,5.927a17.079,17.079,0,0,0,8.045,2.4.73.73,0,0,0,.509.213,34.758,34.758,0,0,0,8.831-.869c2.432-.564,5.419-1.313,7.092-3.329S152.895,162.517,150.5,161.8Z" transform="translate(-71.208 -17.947)" fill="#d9e021"/>
      <path id="Path_795" data-name="Path 795" d="M148.734,164.6c-2.552,2.6-6.01,3.828-9.182,5.493a77.007,77.007,0,0,0-1.211-15.2c-.1-.583-.989-.333-.925.24a75.666,75.666,0,0,1,1.174,15.017q-6.316-4.318-12.474-8.858c-.481-.351-.925.444-.462.8q6.131,4.522,12.418,8.821l-.573.361c-.5.324,0,1.119.462.8l.592-.37v.287a.463.463,0,0,0,.925,0v-.12l.324.222c.49.333.925-.462.462-.8l-.444-.305c3.283-1.766,6.889-3.024,9.543-5.733C149.807,164.833,149.15,164.214,148.734,164.6Z" transform="translate(-71.422 -18.091)" fill="#393b5b"/>
    </g>
  </g>
</svg>
